<?xml version="1.0" encoding="UTF-8"?>
<svg id="Layer_1" xmlns="http://www.w3.org/2000/svg" xmlns:xlink="http://www.w3.org/1999/xlink" version="1.1" viewBox="0 0 1260 750">
  <!-- Generator: Adobe Illustrator 29.1.0, SVG Export Plug-In . SVG Version: 2.1.0 Build 142)  -->
  <defs>
    <style>
      .st0, .st1, .st2 {
        fill: none;
      }

      .st3 {
        fill: #82bd4e;
      }

      .st4 {
        fill: url(#linear-gradient);
      }

      .st5 {
        font-family: Montserrat-SemiBold, Montserrat;
        font-size: 37px;
        font-weight: 600;
      }

      .st5, .st6 {
        isolation: isolate;
      }

      .st7 {
        fill: #fff;
      }

      .st1 {
        stroke-width: 2px;
      }

      .st1, .st2 {
        stroke: #000;
        stroke-miterlimit: 10;
      }

      .st6 {
        font-family: Montserrat-Regular, Montserrat;
        font-size: 30px;
      }

      .st8 {
        fill: #333;
      }

      .st9 {
        clip-path: url(#clippath);
      }

      .st2 {
        stroke-width: 3px;
      }
    </style>
    <clipPath id="clippath">
      <rect class="st0" width="1260" height="750"/>
    </clipPath>
    <linearGradient id="linear-gradient" x1="939.51" y1="-104.46" x2="939.51" y2="705.37" gradientTransform="translate(0 92)" gradientUnits="userSpaceOnUse">
      <stop offset=".08" stop-color="#fff"/>
      <stop offset=".43" stop-color="#fefefd"/>
      <stop offset=".55" stop-color="#f9fbf6"/>
      <stop offset=".65" stop-color="#f0f6eb"/>
      <stop offset=".72" stop-color="#e4efda"/>
      <stop offset=".78" stop-color="#d4e5c4"/>
      <stop offset=".84" stop-color="#c0daa8"/>
      <stop offset=".89" stop-color="#a8cc88"/>
      <stop offset=".93" stop-color="#8dbc64"/>
      <stop offset=".96" stop-color="#7cb24c"/>
    </linearGradient>
  </defs>
  <g class="st9">
    <g>
      <rect class="st4" x="-12.98" y="-24" width="1904.98" height="833.43"/>
      <g id="Layer_2">
        <g id="Background">
          <path class="st7" d="M258.97,368.8l-14.68,234.65s-.99.3-2.68.89c-4.46,1.59-13.69,5.36-20.24,10.42-1.39,1.09-2.78,2.28-3.97,3.57-5.56-39.19-7.94-209.45-8.73-273.84-.2-15.48-.2-24.8-.2-24.8h72.43s40.68,20.84,72.43,58.54c31.75,37.7,34.73,33.73,23.81,61.52-10.91,27.78-45.64,123.03-45.64,123.03-2.38,0-4.86.3-7.14.79-5.46,1.19-10.72,2.98-15.87,5.06-2.88,1.19-4.66,1.98-4.66,1.98,3.97-55.56,21.83-109.14,27.78-125.01,5.95-15.87,4.96-26.79-22.82-40.68s-49.81-36.12-49.81-36.12Z"/>
          <path class="st8" d="M351.44,571.7l.2.5c-18.65,6.65-33.34,16.37-46.14,26.69-.6-4.76.1-12.1.99-18.36.4-.4,12.01-9.92,18.95-11.81h0c1.09,1.98,3.47,3.37,8.04,1.98,10.02-2.98,17.96-1.98,17.96.99Z"/>
          <path class="st7" d="M284.97,66.69h-22.82l-.4.2c-.4-.79-.6-1.19-.6-1.19v-.1c1.79-1.59,3.47-3.17,4.96-4.86h18.85c7.94,0,20.84-.99,52.59,39.69,27.58,35.32,27.48,72.83-15.38,79.97h0c3.08-12.3,3.27-25.1,1.69-37.31-4.17-32.54-20.14-60.92-23.02-64.49-8.93-.99-15.87-11.91-15.87-11.91Z"/>
          <path class="st7" d="M325.55,568.73h0c-6.95,1.89-18.55,11.41-18.95,11.81.89-6.45,1.98-11.81,1.98-11.81,5.16-2.18,10.42-3.87,15.87-5.06-.2,1.69.2,3.47,1.09,5.06Z"/>
          <path class="st7" d="M323.86,143.08c1.59,12.2,1.49,25-1.69,37.31h0c-5.26.89-10.62,1.29-15.97,1.29h0s3.57-3.87.6-11.81-10.91-26.79-10.91-26.79h27.98Z"/>
          <path class="st3" d="M289.93,180.69v.1c6.55,23.91-3.97,83.34-1.39,116.08.5,7.74,1.98,15.38,4.37,22.82h-94.26l-.4-.1c.2-.69.3-1.29.4-1.89.2-1.09.6-2.78,1.09-5.06,1.79-1.89,25.1-26.99,34.63-84.24,9.43-56.75-22.52-73.82-25.6-75.31,1.98-1.59,4.17-2.98,6.45-4.07h0c6.85-3.37,11.81-2.98,12.1-2.98,0,4.37-.6,8.33-1.98,10.91,0,0,11.91,15.87,31.75,15.87s23.81-23.81,23.81-23.81c-1.79-.69-3.17-3.08-4.27-5.85l.3-.1h18.85s7.94,18.85,10.91,26.79-.6,11.81-.6,11.81h0c-5.36,0-10.72-.4-16.17-.99Z"/>
          <path class="st7" d="M227.42,146.06c.1-10.72-2.98-23.81-2.98-23.81,3.97-4.96-1.98-18.85-1.98-18.85-8.93-3.97-11.91-8.93-8.93-14.88,2.38-4.76,6.95-3.97,9.92-.99s4.96,10.91,4.96,10.91h4.96c-16.87-30.76,6.95-22.82,19.84-27.78,2.88-1.19,5.56-2.88,7.94-5.06v.1s.2.4.6,1.19c4.07,8.33,27.68,57.65,12.3,65.29.5,3.77,1.49,7.44,2.68,11.01,1.09,2.78,2.48,5.16,4.27,5.85,0,0-3.97,23.81-23.81,23.81s-31.75-15.87-31.75-15.87c1.39-2.58,1.98-6.55,1.98-10.91Z"/>
          <path class="st8" d="M279.02,42.87c-3.67,6.35-8.04,12.3-12.9,17.86-1.59,1.79-3.27,3.37-4.96,4.86-2.38,2.08-4.96,3.77-7.94,5.06-12.9,4.96-36.71-2.98-19.84,27.78h-4.96s-1.98-7.94-4.96-10.91-7.54-3.77-9.92.99c-2.98,5.95,0,10.91,8.93,14.88,13.39,5.95,5.95,13.89,1.98,18.85-9.92-3.97-37.7-38.69-24.8-56.55s34.23-16.67,47.62-14.88c22.52,2.98,31.45-7.64,31.75-7.94Z"/>
          <path class="st8" d="M253.22,626.27c12.2-.6,16.57,1.39,18.06,3.08-8.43,7.14-16.77,12.9-26,15.78-8.33,2.68-17.07,4.46-25.8,5.26-.3-6.35-.1-12.8.4-19.15,0,0,7.44-8.24,21.93-9.62,1.69,2.98,5.16,4.96,11.41,4.66Z"/>
          <path class="st7" d="M241.61,604.35s-3.87,10.81.1,17.26c-14.49,1.29-21.93,9.62-21.93,9.62.6-8.93,1.59-16.47,1.59-16.47,6.55-5.06,15.78-8.73,20.24-10.42Z"/>
          <path class="st3" d="M216.31,212.14c-4.96-.89-9.82-2.08-14.68-3.57-4.07-1.09-8.14-2.68-11.91-4.56-4.76-2.48-5.95-4.37-5.95-4.37,4.17-17.07,9.82-28.77,15.68-36.71,2.68-3.67,5.75-6.95,9.33-9.82,2.98,1.49,35.02,18.55,25.6,75.31-9.52,57.25-32.84,82.35-34.63,84.24,4.37-19.35,18.16-78.68,16.57-100.51Z"/>
          <path class="st7" d="M186.54,340.13c-3.47,3.08-8.04,4.66-12.7,4.37,0,0-4.86-2.38-.99-3.97,1.98-.89,3.77-2.28,5.06-4.07,3.87-4.76,8.14-14.59,5.85-34.63-3.97-33.73,1.98-87.31,5.95-97.83,3.77,1.89,7.84,3.47,11.91,4.56,4.86,1.49,9.72,2.68,14.68,3.57,1.59,21.83-12.2,81.16-16.57,100.51-.5,2.28-.89,4.07-1.09,5.06-.1.6-.3,1.19-.4,1.89-1.69,6.55-5.46,15.28-11.71,20.54Z"/>
          <path class="st7" d="M208.77,153.1c-3.57,2.88-6.65,6.15-9.33,9.82h-88.11v-.4c.1-16.77,13.59-30.36,30.36-30.36h46.43c11.51,0,22.03,6.55,27.19,16.87h0c-2.28,1.09-4.46,2.48-6.55,4.07Z"/>
          <path class="st7" d="M119.37,162.93h80.07c-5.85,7.94-11.51,19.65-15.68,36.71,0,0,1.29,1.89,5.95,4.37-3.97,10.52-9.92,64.09-5.95,97.83,2.38,20.04-1.98,29.96-5.85,34.63-15.48-8.04-26.59-22.52-30.16-39.59l-28.38-133.94Z"/>
          <path class="st1" d="M261.16,65.69s.2.4.6,1.19c4.07,8.33,27.68,57.65,12.3,65.29-17.86,8.93-36.71-6.95-36.71-6.95"/>
          <path class="st1" d="M224.45,122.25c-9.92-3.97-37.7-38.69-24.8-56.55,12.9-17.86,34.23-16.67,47.62-14.88,22.52,2.98,31.55-7.64,31.75-7.94"/>
          <path class="st1" d="M222.46,103.4s5.95,13.89,1.98,18.85"/>
          <path class="st1" d="M222.46,103.4c-8.93-3.97-11.91-8.93-8.93-14.88,2.38-4.76,6.95-3.97,9.92-.99s4.96,10.91,4.96,10.91h4.96c-16.87-30.76,6.95-22.82,19.84-27.78,2.88-1.19,5.56-2.88,7.94-5.06,1.79-1.59,3.47-3.17,4.96-4.86,4.86-5.56,9.23-11.51,12.9-17.86h0"/>
          <path class="st1" d="M224.45,122.25s2.98,13.1,2.98,23.81c0,4.37-.6,8.33-1.98,10.91"/>
          <path class="st1" d="M274.05,132.17c.5,3.77,1.49,7.44,2.68,11.01,1.09,2.78,2.48,5.16,4.27,5.85"/>
          <path class="st1" d="M281,149.04s-3.97,23.81-23.81,23.81-31.75-15.87-31.75-15.87"/>
          <path class="st1" d="M266.12,60.73h18.85c7.94,0,20.84-.99,52.59,39.69,27.58,35.32,27.48,72.83-15.38,79.97-5.26.89-10.62,1.29-15.97,1.19-5.46,0-10.81-.4-16.27-.99-2.28-.2-4.56-.5-6.95-.89"/>
          <path class="st1" d="M300.84,78.59c2.88,3.57,18.85,31.95,23.02,64.49,1.59,12.2,1.49,25-1.69,37.31"/>
          <polyline class="st1" points="277.03 143.08 295.88 143.08 323.86 143.08"/>
          <path class="st1" d="M295.88,143.08s7.94,18.85,10.91,26.79-.6,11.81-.6,11.81"/>
          <polyline class="st1" points="262.15 66.69 284.97 66.69 291.91 66.69"/>
          <path class="st1" d="M284.97,66.69s6.95,10.91,15.87,11.91"/>
          <path class="st1" d="M289.93,180.79c6.55,23.91-3.97,83.34-1.39,116.08.5,7.74,1.98,15.38,4.37,22.82h-94.26"/>
          <path class="st1" d="M215.32,149.04c-2.28,1.09-4.46,2.48-6.45,4.07-3.57,2.88-6.65,6.15-9.33,9.82-5.85,7.94-11.51,19.65-15.68,36.71,0,0,1.29,1.89,5.95,4.37,3.77,1.89,7.84,3.47,11.91,4.56,4.86,1.49,9.72,2.68,14.68,3.57,4.76.79,6.15.4,6.15.4-1.98-11.91,1.98-33.73,1.98-33.73"/>
          <path class="st1" d="M227.42,146.06h0c-.3,0-5.36-.4-12.1,2.98"/>
          <path class="st1" d="M189.72,204c-3.97,10.52-9.92,64.09-5.95,97.83,2.38,20.04-1.98,29.96-5.85,34.63-1.29,1.79-3.08,3.17-5.06,4.07"/>
          <path class="st1" d="M216.31,212.14c1.59,21.83-12.2,81.16-16.57,100.51-.5,2.28-.89,4.07-1.09,5.06-.1.6-.3,1.19-.4,1.89-1.59,6.45-5.46,15.28-11.71,20.54-3.47,3.08-8.04,4.66-12.7,4.37,0,0-4.86-2.38-.99-3.97"/>
          <path class="st1" d="M208.57,319.69s.1,9.33.2,24.8c.69,64.39,3.08,234.65,8.73,273.84"/>
          <path class="st1" d="M261.16,334.57l-2.18,34.23-14.68,234.65s-.99.3-2.68.89c-4.46,1.59-13.69,5.36-20.24,10.42-1.39,1.09-2.78,2.28-3.97,3.57"/>
          <path class="st1" d="M221.37,614.76s-.99,7.54-1.59,16.47c-.5,6.35-.69,12.8-.4,19.15v.69"/>
          <path class="st1" d="M241.61,604.35s-3.87,10.81.1,17.26c1.79,2.98,5.26,4.96,11.51,4.66,12.2-.6,16.57,1.39,18.06,3.08.5.5.79,1.19.79,1.89"/>
          <path class="st1" d="M219.78,631.23s7.44-8.24,21.93-9.62"/>
          <path class="st1" d="M258.97,368.8s22.03,22.32,49.81,36.21c27.78,13.89,28.77,24.8,22.82,40.68s-23.81,69.45-27.78,125.01"/>
          <path class="st1" d="M303.82,570.71s1.89-.89,4.66-1.98c5.16-2.18,10.42-3.87,15.87-5.06,2.38-.5,4.76-.79,7.14-.79,0,0,34.73-95.25,45.64-123.03,10.91-27.78,7.94-23.81-23.81-61.52-31.75-37.7-72.43-58.54-72.43-58.54"/>
          <path class="st1" d="M308.48,568.73s-1.09,5.26-1.98,11.81c-.89,6.25-1.59,13.59-.99,18.36.1.6.2,1.09.3,1.59"/>
          <path class="st1" d="M324.46,563.67c-.1,1.79.3,3.47,1.09,5.06,1.09,1.98,3.47,3.37,8.04,1.98,9.92-2.98,17.86-1.98,17.86.99"/>
          <path class="st1" d="M306.5,580.53h0c.4-.4,12.01-9.92,18.95-11.81"/>
          <path class="st1" d="M111.34,162.53c.1-16.77,13.59-30.36,30.36-30.36h46.43c11.51,0,22.03,6.55,27.19,16.87h0"/>
          <polyline class="st1" points="111.34 162.93 119.37 162.93 199.44 162.93 199.64 162.93"/>
          <path class="st1" d="M186.15,339.93l.4.1c2.78.89,5.56,1.59,8.43,2.08l13.59,2.28"/>
          <path class="st1" d="M119.37,162.93l28.38,133.94c3.57,17.07,14.68,31.55,30.16,39.59"/>
          <path class="st2" d="M208.57,153l.2.1c2.98,1.49,35.02,18.55,25.6,75.31-9.52,57.25-32.84,82.35-34.63,84.24l-.1.1"/>
          <path class="st1" d="M-12.98,748.91l148.83-79.37c32.35-23.81,57.55-16.77,83.64-19.15,8.73-.79,17.46-2.58,25.8-5.26,9.13-2.98,17.46-8.63,26-15.78,10.52-8.93,21.33-19.94,34.23-30.46,12.7-10.32,27.48-20.04,46.14-26.69,15.68-5.56,34.13-8.93,56.36-8.43,0,0,401.34-135.63,652.46-80.47,251.12,55.26,393,63.2,545.8,12.6s285.75-115.09,285.75-115.09"/>
        </g>
      </g>
      <text class="st5" transform="translate(504.56 237.55)"><tspan x="0" y="0">Yazılımcı Geliştirme Platformu</tspan></text>
      <text class="st6" transform="translate(504.56 283.54)"><tspan x="0" y="0">ekşiCode, yazılımcıların serüveninde onları </tspan><tspan x="0" y="36">yalnız bırakmaz, arkasında durur. </tspan></text>
    </g>
  </g>
</svg>