<?xml version="1.0" encoding="UTF-8"?>
<svg id="Layer_1" xmlns="http://www.w3.org/2000/svg" xmlns:xlink="http://www.w3.org/1999/xlink" version="1.1" viewBox="0 0 1260 750">
  <!-- Generator: Adobe Illustrator 29.1.0, SVG Export Plug-In . SVG Version: 2.1.0 Build 142)  -->
  <defs>
    <style>
      .st0, .st1, .st2, .st3 {
        fill: none;
      }

      .st4 {
        fill: #82bd4e;
      }

      .st5 {
        fill: #231f20;
      }

      .st6 {
        fill: url(#linear-gradient);
      }

      .st1 {
        stroke-linecap: round;
        stroke-linejoin: round;
      }

      .st1, .st2 {
        stroke-width: 2px;
      }

      .st1, .st2, .st3 {
        stroke: #000;
      }

      .st7 {
        fill: #d6f9dd;
      }

      .st8 {
        font-family: Montserrat-SemiBold, Montserrat;
        font-size: 37px;
        font-weight: 600;
      }

      .st8, .st9 {
        isolation: isolate;
      }

      .st10 {
        fill: #fff;
      }

      .st11 {
        fill: #628e3b;
      }

      .st12 {
        fill: url(#SVGID_0000017672449391310435010);
      }

      .st2, .st3 {
        stroke-miterlimit: 10;
      }

      .st13 {
        fill: #60695c;
      }

      .st9 {
        font-family: Montserrat-Regular, Montserrat;
        font-size: 30px;
      }

      .st14 {
        clip-path: url(#clippath);
      }

      .st3 {
        stroke-width: 3px;
      }
    </style>
    <clipPath id="clippath">
      <rect class="st0" width="1260" height="750"/>
    </clipPath>
    <linearGradient id="linear-gradient" x1="301.48" y1="-152.65" x2="301.48" y2="663.56" gradientTransform="translate(0 92)" gradientUnits="userSpaceOnUse">
      <stop offset=".08" stop-color="#fff"/>
      <stop offset=".43" stop-color="#fefefd"/>
      <stop offset=".55" stop-color="#f9fbf6"/>
      <stop offset=".65" stop-color="#f0f6eb"/>
      <stop offset=".72" stop-color="#e4efda"/>
      <stop offset=".78" stop-color="#d4e5c4"/>
      <stop offset=".84" stop-color="#c0daa8"/>
      <stop offset=".89" stop-color="#a8cc88"/>
      <stop offset=".93" stop-color="#8dbc64"/>
      <stop offset=".96" stop-color="#7cb24c"/>
    </linearGradient>
    <pattern id="SVGID_0000017672449391310435010" data-name="SVGID 0000017672449391310435010" x="0" y="0" width="28.8" height="28.8" patternTransform="translate(-17.08 -7.06) scale(1 -1)" patternUnits="userSpaceOnUse" viewBox="0 0 28.8 28.8">
      <g>
        <rect class="st0" width="28.8" height="28.8"/>
        <g>
          <rect class="st0" x="0" width="28.8" height="28.8"/>
          <g>
            <rect class="st0" x="0" width="28.8" height="28.8"/>
            <g>
              <rect class="st0" x="0" width="28.8" height="28.8"/>
              <g>
                <rect class="st0" x="0" width="28.8" height="28.8"/>
                <rect class="st0" x="0" width="28.8" height="28.8"/>
                <path class="st5" d="M28.8-1.5c.8,0,1.4.6,1.4,1.4s-.6,1.4-1.4,1.4-1.4-.6-1.4-1.4c0-.7.6-1.4,1.4-1.4h0Z"/>
                <path class="st5" d="M14.4-1.5c.8,0,1.5.6,1.5,1.4s-.6,1.5-1.4,1.5S13,.8,13,0h0c0-.8.7-1.5,1.4-1.5Z"/>
                <path class="st5" d="M28.8,12.9c.8,0,1.4.6,1.4,1.4s-.6,1.4-1.4,1.4-1.4-.6-1.4-1.4c0-.7.6-1.4,1.4-1.4h0Z"/>
                <path class="st5" d="M14.4,12.9c.8,0,1.5.6,1.5,1.4s-.6,1.5-1.4,1.5-1.5-.6-1.5-1.4h0c0-.8.7-1.5,1.4-1.5Z"/>
                <path class="st5" d="M7.2,5.8c.8,0,1.4.7,1.4,1.4,0,.8-.6,1.4-1.4,1.4s-1.4-.6-1.4-1.4h0c0-.8.7-1.4,1.4-1.4Z"/>
                <path class="st5" d="M21.6,5.8c.8,0,1.4.6,1.4,1.4s-.6,1.4-1.4,1.4-1.4-.6-1.4-1.4.6-1.4,1.4-1.4h0Z"/>
                <path class="st5" d="M7.2,20.1c.8,0,1.4.6,1.4,1.4s-.6,1.4-1.4,1.4-1.4-.5-1.4-1.3.6-1.5,1.4-1.5h0Z"/>
                <path class="st5" d="M21.6,20.1c.8,0,1.4.6,1.4,1.4s-.6,1.4-1.4,1.4-1.4-.6-1.4-1.4.6-1.4,1.4-1.4h0Z"/>
                <path class="st5" d="M0-1.5C.8-1.5,1.4-.9,1.4-.1h0C1.4.7.7,1.3,0,1.3-.8,1.3-1.4.7-1.4-.1-1.4-.8-.8-1.5,0-1.5H0Z"/>
                <path class="st5" d="M0,12.9c.8,0,1.4.6,1.4,1.4h0C1.4,15.1.7,15.7,0,15.7s-1.4-.6-1.4-1.3C-1.4,13.6-.8,12.9,0,12.9H0Z"/>
                <path class="st5" d="M28.8,27.3c.8,0,1.4.6,1.4,1.4.1.9-.6,1.5-1.4,1.5h0c-.8,0-1.4-.6-1.4-1.4h0c0-.8.6-1.5,1.4-1.5Z"/>
                <path class="st5" d="M14.4,27.3c.8,0,1.4.6,1.4,1.4s-.6,1.4-1.4,1.4h0c-.8,0-1.4-.7-1.4-1.4,0-.7.7-1.4,1.4-1.4Z"/>
                <path class="st5" d="M0,27.3c.8,0,1.4.6,1.4,1.4C1.5,29.6.8,30.2,0,30.2H0c-.7,0-1.4-.6-1.4-1.4h0C-1.4,28-.8,27.3,0,27.3H0Z"/>
              </g>
            </g>
          </g>
        </g>
      </g>
    </pattern>
  </defs>
  <g class="st14">
    <g>
      <g>
        <rect class="st6" x="-658.52" y="-72.28" width="1920" height="840"/>
        <g>
          <rect class="st0" x="879.68" y="628.52" width="36" height="50"/>
          <path d="M881.18,630.02h33v47h-33v-47M878.18,680.02h39v-53h-39v53Z"/>
          <rect class="st0" x="1021.68" y="338.52" width="75" height="103"/>
          <path d="M1023.18,340.02h72v100h-72v-100M1020.18,443.02h78v-106h-78v106Z"/>
          <path class="st4" d="M1053.68,663.92c6.5,13.8,9,27.7-.5,44.5-3.9,7-10,14.4-18.7,22.6v2h102.7v-63c-27-40.9-16.4-77.4-9.1-116.7,7.4-39.6-37.4-65.8-73.1-64.9-31.7.8-75,12.8-78.3,58.8,12.2-3.2,24.9-4.4,37.6-3.6,0,0,38.5.4,41.1,43.1,0,0,17.4-30.1,25.7-21.8,8.3,8.3,1.3,24.8-10.4,37.4-10,10.8-21.9,33.6-19.6,52.2.3,3.4,1.2,6.5,2.6,9.4Z"/>
          <path class="st10" d="M1055.38,586.82c-2.6-42.7-41.1-43.1-41.1-43.1,0,0-11,44.4-16.3,54.9,3.1,1.9,6.8,2.5,10.4,1.7,0,0-18.5,61.6,18.3,60.9,6.4-.1,14.4-2.1,24.4-6.5-2.4-18.6,9.6-41.4,19.6-52.2,11.8-12.7,18.7-29.2,10.4-37.4-8.3-8.4-25.7,21.7-25.7,21.7Z"/>
          <path class="st10" d="M1051.08,654.72c-10,4.5-18,6.4-24.4,6.5-.8,13.5-5.1,26.6-12.4,37.9,0,0,13.8,6.8,38.9,9.2,9.5-16.8,7-30.6.5-44.5-1.4-2.8-2.3-5.9-2.6-9.1Z"/>
          <path class="st12" d="M1014.18,699.12c-10.8,16.4-31.1,31.8-69,31.8v2h89.2v-2c8.7-8.2,14.7-15.6,18.7-22.6-25.1-2.4-38.8-9.2-38.9-9.2Z"/>
          <path class="st11" d="M997.98,598.62c5.3-10.5,16.3-54.9,16.3-54.9-12.6-.8-25.3.4-37.6,3.6-.4,6.4-.2,12.9.8,19.3,8.7,62-34.8,95.1-34.8,95.1h-.5v71.2h3.1v-2c37.9,0,58.2-15.5,69-31.8,7.4-11.3,11.7-24.4,12.4-37.9-36.8.7-18.3-60.9-18.3-60.9-3.6.8-7.3.2-10.4-1.7Z"/>
          <polygon class="st3" points="1137.18 468.02 942.18 468.02 942.18 661.72 942.18 733.02 945.18 733.02 1034.48 733.02 1137.18 733.02 1137.18 670.02 1137.18 468.02"/>
          <path class="st2" d="M1034.48,730.92c8.7-8.2,14.7-15.6,18.7-22.6,9.5-16.8,7-30.6.5-44.5-1.3-2.9-2.2-6-2.6-9.2-2.4-18.6,9.6-41.4,19.6-52.2,11.8-12.6,18.7-29.1,10.4-37.4s-25.7,21.8-25.7,21.8c-2.6-42.7-41.1-43.1-41.1-43.1,0,0-11,44.4-16.3,54.9,3.1,1.9,6.8,2.5,10.4,1.7,0,0-18.5,61.6,18.3,60.9,6.4-.1,14.4-2.1,24.4-6.5l.9-.4"/>
          <path class="st2" d="M1137.88,671.02c-.2-.3-.5-.7-.7-1-27-40.9-16.4-77.4-9.1-116.7,7.4-39.6-37.4-65.8-73.1-64.9-31.7.8-75,12.8-78.3,58.8-.4,6.4-.2,12.9.8,19.3,8.7,62-34.8,95.1-34.8,95.1"/>
          <path class="st2" d="M976.68,547.32h0c12.2-3.2,24.9-4.4,37.6-3.6"/>
          <path class="st2" d="M945.28,730.92c37.9,0,58.2-15.5,69-31.8,7.4-11.3,11.7-24.4,12.4-37.9"/>
          <path class="st1" d="M1053.18,708.32c-25.2-2.4-38.9-9.2-38.9-9.2"/>
          <path class="st12" d="M992.98,431.02s-6.1-20.2-14.8-43.7c-49.2,24.4-75.4,13.3-75.4,13.3h0c-3.1,8-7.5,15.8-13.8,21.5v20.8h106.3v-11.9h-2.3Z"/>
          <path class="st13" d="M877.58,296.02c4.4-11.7,7.8-21.6,7.8-21.6,0,0,15.6,6.1,39.2-4.6,0,0-4.9,33.9-9.3,44.2l4,4.2c7.6-14.9,15.6-48.4,15.6-48.4,31.6-1.1,7.1,17,7.1,17-6.9,6.9-18.1,12.8,3.2,35.1,7.8,8.1,16.2,24.8,23.8,42.8-6.6-16.9-7.6-57.5,14.1-90.3,22.3-33.8-38.7-39.1-101.2-22.1.1-.1-30.9,5.4-4.3,43.7Z"/>
          <path class="st10" d="M902.78,400.72h0s26.2,11.1,75.4-13.3c-2.6-7-5.4-14.2-8.4-21.3-.2-.4-.3-.8-.5-1.2,0-.1-.1-.1-.1-.2-7.6-18-16.1-34.7-23.8-42.8-21.4-22.3-10.1-28.2-3.2-35.1,0,0,24.5-18.1-7.1-17,0,0-8,33.5-15.6,48.4l-4-4.2c4.4-10.3,9.3-44.2,9.3-44.2-23.6,10.7-39.3,4.6-39.3,4.6,0,0-3.4,9.9-7.8,21.6-4.4,11.5-9.8,24.9-13.9,32.5-8.4,15.2,22.1-4.6,22.1-4.6v47.3c8.1-.8,16.1-2.6,23.8-5.5-.1.5-.5,18.1-6.9,35Z"/>
          <path class="st10" d="M969.18,364.92c.2.4.3.8.5,1.2-.1-.4-.3-.8-.5-1.2Z"/>
          <polygon class="st3" points="995.18 231.02 839.18 231.02 839.18 443.02 888.88 443.02 995.18 443.02 995.18 431.02 995.18 231.02"/>
          <path class="st2" d="M934.98,343.42c-4.4,11.5-15.1,18.3-25.4,22.3-7.7,2.9-15.7,4.7-23.8,5.5v-47.3s-30.5,19.8-22.1,4.6c4.2-7.6,9.6-21,13.9-32.5,4.4-11.7,7.8-21.6,7.8-21.6"/>
          <path class="st2" d="M919.38,318.22l-4-4.2c4.4-10.3,9.3-44.2,9.3-44.2-23.6,10.7-39.3,4.6-39.3,4.6"/>
          <path class="st2" d="M919.38,318.22c7.6-14.9,15.6-48.4,15.6-48.4,31.6-1.1,7.1,17,7.1,17-6.9,6.9-18.1,12.8,3.2,35.1,7.8,8.1,16.2,24.8,23.8,42.8"/>
          <path class="st2" d="M969.18,364.92c.2.4.3.8.5,1.2,3,7.1,5.8,14.3,8.4,21.3,8.7,23.4,14.8,43.7,14.8,43.7"/>
          <path class="st2" d="M877.98,296.52l-.4-.5c-26.6-38.3,4.4-43.8,4.4-43.8,62.5-17,123.5-11.6,101.2,22.1-21.7,32.8-20.7,73.4-14.1,90.3,0,.1.1.1.1.2.2.4.3.8.5,1.2"/>
          <path class="st2" d="M888.88,441.02v-18.8c6.4-5.7,10.8-13.5,13.8-21.5,6.5-16.9,6.9-34.5,6.9-35h0"/>
          <path class="st2" d="M978.08,387.42c-49.2,24.4-75.4,13.3-75.4,13.3"/>
          <path class="st12" d="M914.78,588.22c-7.1-5.2-16.4-11.9-23.9-21.8-38.2,21.2-103.7,2.5-103.7,2.5-5.5,10-13.9,22.2-26.5,31.6v1.5h156.4v-13.8h-2.3Z"/>
          <path class="st7" d="M763.38,386.92c-6.3,25.5,11.2,28.7,33.4,27.7,17.8-.8,38.7-4.2,52.4-.6,0,0,3.4,50.3-16.1,89.2,0,0-34.6-7.7-50.6-1.6-1.1.4-2.2.9-3.2,1.6-14,8.9-2.2,24.1-17.4,38.9-15.2,14.8-7.2,21.2,3,20.7,4.9-.2,17.3-6.1,30.3-13.1,14.1-7.6,28.7-16.6,34.8-21.2,11.8-8.9,14-8.9,22-44,.4-1.9.8-3.8,1.2-5.7,6.5-33.5,4.7-68,19.5-62.8,15.7,5.5,11.4,20.7-2.1,39.3-7.2,9.9-13,16.1-14.7,24-1.5,7,.4,15.2,7.5,28.5,6.4,11.7,11.9,23.7,16.6,36.2-4.4-17.6-2.4-41.5,13.5-74.5,36.8-76.9-3.8-84.5-30.9-90.2-11.3-2.4-24.2-2.8-35.5-2.5h-1.9c-29.8,0-50.7-34.4-61.8,10.1Z"/>
          <path class="st10" d="M882.98,552.42c-1.1-2.7-2-5.5-2.7-8.3h0c-4.7-12.4-10.2-24.5-16.6-36.2-7.1-13.2-8.9-21.5-7.5-28.5l-2.8-.5c-.4,1.9-.8,3.8-1.2,5.7-8.1,35.1-10.2,35.1-22,44-6.2,4.6-20.8,13.6-34.8,21.2-2.1,6.6-4.8,13-8.2,19.1,0,0,65.5,18.8,103.7-2.5-3.2-4.3-5.9-9-7.9-14h0Z"/>
          <path class="st10" d="M853.48,478.92l2.8.5c1.7-7.9,7.5-14.1,14.7-24,13.5-18.6,17.8-33.8,2.1-39.3-14.9-5.2-13.1,29.4-19.6,62.8Z"/>
          <path class="st10" d="M782.68,501.72h0c16-6.2,50.6,1.6,50.6,1.6,19.4-38.9,16.1-89.2,16.1-89.2-13.8-3.6-34.6-.2-52.4.6,0,0-9.8,46-21.8,67.9,0,0,3.9,2.4,8.8,4.8,0,.2,2.6,8.4-1.3,14.3Z"/>
          <polygon class="st3" points="917.18 337.02 722.18 337.02 722.18 602.02 760.78 602.02 917.18 602.02 917.18 588.22 917.18 337.02"/>
          <path class="st2" d="M914.78,588.32c-7.1-5.2-16.4-11.9-23.9-21.8-3.3-4.3-5.9-9-8-14"/>
          <path class="st2" d="M882.98,552.42c-1.1-2.7-2-5.5-2.7-8.3"/>
          <path class="st2" d="M880.18,544.02c-4.4-17.6-2.4-41.5,13.5-74.5,36.8-76.9-3.8-84.5-30.9-90.2-11.3-2.4-24.2-2.8-35.5-2.5h-1.9"/>
          <path class="st2" d="M825.38,376.82c-9.6.3-19.1,1.1-28.5,2.5"/>
          <path class="st2" d="M882.98,552.42h0c-.1-.5-.9-3.3-2.7-8.4h0c-4.7-12.4-10.2-24.5-16.6-36.2-7.1-13.2-8.9-21.5-7.5-28.5,1.7-7.9,7.5-14.1,14.7-24,13.5-18.6,17.8-33.8,2.1-39.3-14.8-5.2-13,29.3-19.5,62.8-.4,1.9-.8,3.8-1.2,5.7-8.1,35.1-10.2,35.1-22,44-6.2,4.6-20.8,13.6-34.8,21.2-12.9,7-25.4,12.9-30.3,13.1-10.2.4-18.2-5.9-3-20.7s3.4-30,17.4-38.9c1-.6,2.1-1.2,3.2-1.6,16-6.2,50.6,1.6,50.6,1.6,19.4-38.9,16.1-89.2,16.1-89.2-13.8-3.6-34.6-.2-52.4.6-22.2,1-39.8-2.1-33.4-27.7,11-44.5,31.9-10.1,61.9-10.1h1.9c.4,0,.8-.1,1.3-.1"/>
          <path class="st2" d="M796.88,491.62c-3.8-.3-8.8-2.3-13-4.3-4.9-2.4-8.8-4.8-8.8-4.8,12-21.8,21.8-67.9,21.8-67.9"/>
          <path class="st2" d="M782.68,501.62c3.9-5.8,1.3-14,1.2-14.4h0"/>
          <path class="st2" d="M760.78,600.52c12.5-9.4,21.1-21.6,26.5-31.6,3.4-6.1,6.1-12.5,8.2-19.1"/>
          <path class="st2" d="M890.98,566.42c-38.2,21.2-103.7,2.5-103.7,2.5"/>
          <polyline class="st2" points="1261.08 706.72 1187.48 706.72 1186.48 284.02 1020.18 284.02"/>
          <line class="st2" x1="-658.92" y1="706.52" x2="917.18" y2="706.72"/>
        </g>
      </g>
      <text class="st8" transform="translate(78.79 190.43)"><tspan x="0" y="0">İş İlanları</tspan></text>
      <text class="st9" transform="translate(78.79 236.42)"><tspan x="0" y="0">Kendine uygun açık pozisyonlara </tspan><tspan x="0" y="36">bakabilir ya da size uygun takım </tspan><tspan x="0" y="72">arkadaşları bulabilirsiniz. </tspan></text>
    </g>
  </g>
</svg>