<?xml version="1.0" encoding="UTF-8"?>
<svg id="Layer_1" xmlns="http://www.w3.org/2000/svg" xmlns:xlink="http://www.w3.org/1999/xlink" version="1.1" viewBox="0 0 1260 750">
  <!-- Generator: Adobe Illustrator 29.1.0, SVG Export Plug-In . SVG Version: 2.1.0 Build 142)  -->
  <defs>
    <style>
      .st0, .st1 {
        fill: none;
      }

      .st2 {
        fill: #effdf1;
      }

      .st3 {
        fill: url(#linear-gradient);
      }

      .st4 {
        fill: #d6f9dd;
      }

      .st5 {
        font-family: Montserrat-SemiBold, Montserrat;
        font-size: 37px;
        font-weight: 600;
      }

      .st5, .st6 {
        isolation: isolate;
      }

      .st7 {
        fill: #fff;
      }

      .st1 {
        stroke: #000;
        stroke-miterlimit: 10;
        stroke-width: 2px;
      }

      .st6 {
        font-family: Montserrat-Regular, Montserrat;
        font-size: 30px;
      }

      .st8 {
        fill: #333;
      }

      .st9 {
        fill: #1a1a1a;
      }

      .st10 {
        clip-path: url(#clippath);
      }
    </style>
    <clipPath id="clippath">
      <rect class="st0" x="-.5" width="1260" height="750"/>
    </clipPath>
    <linearGradient id="linear-gradient" x1="357.26" y1="-149.42" x2="357.26" y2="666.79" gradientTransform="translate(0 92)" gradientUnits="userSpaceOnUse">
      <stop offset=".08" stop-color="#fff"/>
      <stop offset=".43" stop-color="#fefefd"/>
      <stop offset=".55" stop-color="#f9fbf6"/>
      <stop offset=".65" stop-color="#f0f6eb"/>
      <stop offset=".72" stop-color="#e4efda"/>
      <stop offset=".78" stop-color="#d4e5c4"/>
      <stop offset=".84" stop-color="#c0daa8"/>
      <stop offset=".89" stop-color="#a8cc88"/>
      <stop offset=".93" stop-color="#8dbc64"/>
      <stop offset=".96" stop-color="#7cb24c"/>
    </linearGradient>
  </defs>
  <g class="st10">
    <g>
      <g>
        <rect class="st3" x="-602.74" y="-69.06" width="1920" height="840"/>
        <g id="Layer_2">
          <g id="computer">
            <path class="st7" d="M1161.96,425.94h45c-13.1,56.5-40,72-40,72h-150.2c-7.4,0-13.4,6-13.4,13.4,0,.5,0,1.1.1,1.6l17.8,146c-1.1-.4-2.2-.8-3.3-1-8.5-1.8-16.3,2.9-19.9,5.6-.8.5-1.5,1.2-2.2,1.8l-1.4-4.9-58-197.3c-4.5-15.4,4.3-31.5,19.7-36,2.6-.8,5.3-1.2,8.1-1.2h197.7Z"/>
            <path class="st7" d="M1033.46,409.24l-3.5-2.5-3.6-2.5c-6.3-3.6-13.4-3.3-16.8-3.3h-16.9c-1.5.1-2.8-1-2.9-2.5s1.1-2.8,2.5-2.9h5.2c3.9,0,7-3.1,7-7,0-1.5-.5-3-1.4-4.2-1.3-1.8-3.4-2.8-5.6-2.8h-17.4c-1.4,0-2.7.6-3.7,1.6l-3.7,3.9c-1.5,1.6-3.6,2.5-5.8,2.5h-3.2l11.4-11.4c.9-.9,2.2-1.5,3.5-1.5h24.3c4.7,0,9.3,1.5,13,4.3l1.1.8c3,2.3,6.8,3.5,10.6,3.5h3.9c-.1,6.2,0,15.6,2,24Z"/>
            <path class="st4" d="M1033.46,409.24c-2-8.5-2.1-17.8-1.9-23.9.1-4,.4-6.5.4-6.5h74v-159c32.7,16.9,108,72.8,108,138,0,27.5-2.8,49.8-7,68h-45c-9-15-13-89-13-89v89h-106c-1.8-1.2-3.3-2.8-4.5-4.5h20.1c3,0,5.4-2.4,5.4-5.4s-2.4-5.4-5.4-5.4h-24.8c-.1-.4-.2-.8-.3-1.3Z"/>
            <path class="st9" d="M1161.96,425.94h-13v-89s4,74,13,89Z"/>
            <path class="st2" d="M1031.06,309.44c3.8-3.4,7.1-7.2,9.9-11.3,2.5-3.5,4-6.2,4-6.2,14,12,61,39.5,61,39.5v47.5h-25.7s-36.3-57-56.3-65c2.6-1.1,5-2.6,7.1-4.5Z"/>
            <path class="st7" d="M1105.96,219.84v58c-6-19-52.2-85.1-62-44-10,42-50-19-50-19l-11,9c-5.8-20.2-18.9-42.2-19.9-43.9,2.8-1.3,5.2-3.5,6.9-6.1,10-15,10-20,10-20,0,0,7,3,10,7s7,0,7,0c-5-1-10-8-11-11s2-11,15-7,6,12,11,20,24,2,24,2c0,0,36,39,66,53,1.2.6,2.5,1.3,4,2Z"/>
            <path class="st9" d="M1062.36,412.14c2.1,2.1,2.1,5.5,0,7.6-1,1-2.4,1.6-3.8,1.6h-110.8l-77.5-118.4h13.8l68.8,105.2c1,1.5,2.7,2.4,4.5,2.4h101.1c1.5,0,2.9.6,3.9,1.6Z"/>
            <path class="st9" d="M968.46,129.84c13.6-15.9,42.8-42.8,47.5-10.9,5,34,23,30,27,35s-7,11-7,11c0,0-19,6-24-2s2-16-11-20-16,4-15,7,6,10,11,11c0,0-4,4-7,0s-10-7-10-7c0,0,0,5-10,20-1.7,2.6-4.1,4.8-6.9,6.1-10.1,4.6-22.7-2.6-23-2.8h0c-4.2,4.2-10.6,7.1-16.1-.3-8.9-11.9,2.8-24.8,12.7-23,2.6-10.7,11.8-26.9,31.8-24.1Z"/>
            <path class="st7" d="M1013.96,289.94c-.2-1-.7-1.9-1.3-2.8h0c-1.3-1.7-3.4-2.8-5.6-2.8h-13.5c-9.6,0-12.6-5.5-12.6-5.5h19.4c16.8,0,21.6,6.4,28.8,13.6,6.9,6.9,11.4,5.7,11.8,5.6-2.8,4.2-6.2,8-9.9,11.3-5-3.9-12.6-5.3-15.3-5.3h-15.7c-1.5,0-2.7-1.2-2.7-2.7s1.2-2.7,2.7-2.7h7c3.9,0,7.1-3.2,7.1-7.1h0c0-.5-.1-1.1-.2-1.6Z"/>
            <path class="st9" d="M1027.36,690.24c4.7,11.6,3.6,19-6.1,19h-49.5c-4.2,0-3.4-2.5-3.4-5.1,0-1.4.4-1.8,2.7-2.5,1.8-.5,4.7-1.1,9.4-2.4,10.8-3,23-9.9,23.2-15.4,0,0,13.8.5,20-3.4,1.2,3.3,2.4,6.7,3.7,9.8Z"/>
            <path class="st7" d="M1017.96,657.94c-.1,4.1,2.5,13.3,5.8,22.5-6.2,4-20,3.4-20,3.4,0-1.4-.2-2.8-.5-4.2-1.4-5.5-3.1-10.9-5.2-16.2,3.6-2.7,11.4-7.3,19.9-5.5h0Z"/>
            <path class="st8" d="M1003.16,679.74c.3,1.4.5,2.8.5,4.2-.2,5.5-12.4,12.5-23.2,15.4-4.7,1.3-7.6,1.9-9.4,2.4l-.6-2.1,1-.3c10.8-3,23-9.9,23.2-15.4,0-1-.1-2-.3-3,3-.1,6-.5,8.8-1.2Z"/>
            <path class="st7" d="M998.06,663.44c2.1,5.3,3.8,10.7,5.2,16.2-2.9.8-5.8,1.1-8.8,1.2-1.1-6.6-5.4-17.4-5.4-17.4l-.9-.1c1.8-1.6,3.9-2.6,6.3-3l1.4,4.9c.7-.6,1.4-1.2,2.2-1.8Z"/>
            <path class="st7" d="M936.36,463.04l58,197.3c-2.3.4-4.5,1.4-6.3,3-.7.6-1.4,1.2-2,1.9l-85.6-214.4c-3.7-9.3.8-19.9,10.1-23.6,2.2-.9,4.4-1.3,6.8-1.3h46.7c-16,.1-28.9,13.1-28.9,29.1,0,2.7.4,5.4,1.2,8Z"/>
            <path class="st8" d="M971.76,709.24h-9c-4.2,0-3.4-2.5-3.4-5.1s1.2-1.9,11.1-4.6l.6,2.1c-2.3.6-2.7,1-2.7,2.5,0,2.6-.9,5.1,3.4,5.1Z"/>
            <path class="st8" d="M870.26,302.94l77.5,118.4h-100.3c-1.8,0-3.5-.9-4.5-2.4l-75.9-116h103.2Z"/>
            <path class="st1" d="M993.96,214.94l-11,9c-5.8-20.2-18.9-42.2-19.9-43.9l-.1-.1"/>
            <path class="st1" d="M1105.96,277.94c-6-19-52.2-85.1-62-44-10,42-50-19-50-19"/>
            <path class="st1" d="M940.06,177.24c-4.2,4.2-10.6,7.1-16.1-.3-8.9-11.9,2.8-24.8,12.7-23h.3"/>
            <path class="st1" d="M944.96,169.94c-.4,1.5-2.2,4.7-4.9,7.3"/>
            <path class="st1" d="M935.96,160.94c-.2-2.4.1-4.8.7-7,2.6-10.6,11.8-26.8,31.8-24l.5.1"/>
            <path class="st1" d="M940.06,177.24h0c.3.2,12.9,7.4,23,2.8,2.8-1.3,5.2-3.5,6.9-6.1,10-15,10-20,10-20,0,0,7,3,10,7s7,0,7,0c-5-1-10-8-11-11s2-11,15-7,6,12,11,20,24,2,24,2c0,0,11-6,7-11s-22-1-27-35c-4.7-31.8-33.9-4.9-47.5,10.9-.9,1.1-1.8,2.1-2.5,3.1"/>
            <path class="st1" d="M1105.96,219.84c32.7,16.9,108,72.8,108,138,0,27.5-2.8,49.8-7,68-13.1,56.5-40,72-40,72"/>
            <path class="st1" d="M1035.96,164.94s36,39,66,53c1.2.6,2.6,1.2,4,2"/>
            <path class="st1" d="M1038.46,421.34c1.2,1.8,2.8,3.3,4.5,4.5"/>
            <path class="st1" d="M1105.96,219.84h0v159h-74s-.3,2.5-.4,6.5c-.2,6.1-.1,15.5,1.9,23.9.1.4.2.8.3,1.3"/>
            <path class="st1" d="M1148.96,425.94v-89s4,74,13,89"/>
            <path class="st1" d="M1023.96,313.94c20,8,56.3,65,56.3,65"/>
            <path class="st1" d="M1105.96,331.44s-47-27.5-61-39.5c0,0-1.5,2.7-4,6.2-2.8,4.2-6.2,8-9.9,11.3-2.1,1.9-4.5,3.4-7.1,4.4"/>
            <path class="st1" d="M1040.96,298.14h0c-.3.1-4.9,1.3-11.8-5.6-7.2-7.2-12-13.6-28.8-13.6h-19.4"/>
            <path class="st1" d="M980.96,278.94s3,5.5,12.6,5.5h13.5"/>
            <path class="st1" d="M980.26,281.64s3,5.5,12.6,5.5h19.8"/>
            <path class="st1" d="M978.96,284.44s3,5.5,12.6,5.5h22.4"/>
            <path class="st1" d="M1007.06,298.74c3.9,0,7.1-3.2,7.1-7.1h0c0-.5-.1-1.1-.2-1.6-.2-1-.7-1.9-1.3-2.8h0c-1.3-1.7-3.4-2.8-5.6-2.8"/>
            <path class="st1" d="M1000.06,298.74c-1.5,0-2.7,1.2-2.7,2.7s1.2,2.7,2.7,2.7"/>
            <path class="st1" d="M1000.06,304.14h15.7c2.7,0,10.2,1.5,15.3,5.3l.4.3"/>
            <line class="st1" x1="1000.06" y1="298.74" x2="1007.06" y2="298.74"/>
            <path class="st1" d="M997.46,395.44c3.9,0,7-3.1,7-7,0-1.5-.5-3-1.4-4.2-1.3-1.8-3.4-2.8-5.6-2.8"/>
            <path class="st1" d="M992.66,395.44c-1.5-.1-2.8,1-2.9,2.5s1.1,2.8,2.5,2.9h.3"/>
            <path class="st1" d="M992.66,400.94h16.9c3.5,0,10.6-.3,16.8,3.3l3.6,2.5,3.5,2.5.1.1"/>
            <line class="st1" x1="992.66" y1="395.44" x2="997.46" y2="395.44"/>
            <path class="st1" d="M997.46,381.54h-17.4c-1.4,0-2.7.6-3.7,1.6l-3.7,3.9c-1.5,1.6-3.6,2.5-5.8,2.5h-3.2l11.4-11.4c.9-.9,2.2-1.5,3.5-1.5h24.3c4.7,0,9.3,1.5,13,4.3l1.1.8c3,2.3,6.8,3.5,10.6,3.5h3.9"/>
            <path class="st1" d="M1003.06,384.34h-21.4c-1.4,0-2.7.6-3.6,1.6l-3.7,3.9c-1.5,1.6-3.6,2.5-5.8,2.5h-3.2"/>
            <path class="st1" d="M1004.26,387.44h-21.3c-1.4,0-2.7.6-3.6,1.6l-3.7,3.9c-1.5,1.6-3.6,2.5-5.8,2.5h-3.2"/>
            <path class="st1" d="M1206.96,425.94h-242.8c-16,0-29,13-28.9,29,0,2.8.4,5.5,1.2,8.1l58,197.3,1.4,4.9c.7-.6,1.4-1.2,2.2-1.8,3.6-2.7,11.4-7.4,19.9-5.6,1.1.2,2.2.6,3.3,1l-17.8-146c-.9-7.4,4.3-14,11.7-15,.5-.1,1.1-.1,1.6-.1h300.7"/>
            <path class="st1" d="M1021.16,709.24c9.7,0,10.8-7.4,6.1-19-1.2-3.1-2.5-6.4-3.7-9.8-3.2-9.2-5.9-18.5-5.8-22.5"/>
            <path class="st1" d="M998.06,663.44c2.1,5.3,3.8,10.7,5.2,16.2.3,1.4.5,2.8.5,4.2-.2,5.5-12.4,12.5-23.2,15.4-4.7,1.3-7.6,1.9-9.4,2.4-2.3.6-2.7,1-2.7,2.5,0,2.5-.8,5.1,3.4,5.1"/>
            <path class="st1" d="M1003.66,683.84s13.8.5,20-3.4"/>
            <path class="st1" d="M964.16,425.94h-46.7c-10.1,0-18.2,8.1-18.2,18.2,0,2.3.4,4.6,1.3,6.8l85.6,214.4c.6-.7,1.3-1.3,2-1.9,1.8-1.6,3.9-2.6,6.3-3"/>
            <path class="st1" d="M994.36,680.84h0c3,0,5.9-.4,8.8-1.2"/>
            <path class="st1" d="M962.76,709.24c-4.2,0-3.4-2.5-3.4-5.1s1.2-1.9,11.1-4.6l1-.3c10.8-3,23-9.9,23.2-15.4,0-1-.1-2-.3-3-1.1-6.6-5.4-17.4-5.4-17.4"/>
            <path class="st1" d="M1021.16,709.24s-238,7.1-560.9-.3c-219-5-145-178-301-263-187.1-101.9-294,7-457-181-63.1-72.7-304.9,42.9-304.9,42.9"/>
            <path class="st1" d="M767.06,302.94l75.9,116c1,1.5,2.7,2.4,4.5,2.4h211.1c3,0,5.4-2.4,5.4-5.4s-2.4-5.4-5.4-5.4h-101.1c-1.8,0-3.5-.9-4.5-2.4l-68.9-105.2"/>
            <polyline class="st1" points="884.06 302.94 870.26 302.94 767.06 302.94"/>
            <line class="st1" x1="870.26" y1="302.94" x2="947.76" y2="421.34"/>
          </g>
        </g>
      </g>
      <text class="st5" transform="translate(90.27 188.23)"><tspan x="0" y="0">Kaynaklar</tspan></text>
      <text class="st6" transform="translate(90.27 234.22)"><tspan x="0" y="0">Geliştirdiğin veya öğrenmek istediğin </tspan><tspan x="0" y="36">programlama diline ait içerikleri bulabilirsin.</tspan></text>
    </g>
  </g>
</svg>