<?xml version="1.0" encoding="UTF-8"?>
<svg id="Layer_1" xmlns="http://www.w3.org/2000/svg" xmlns:xlink="http://www.w3.org/1999/xlink" version="1.1" viewBox="0 0 1260 750">
  <!-- Generator: Adobe Illustrator 29.1.0, SVG Export Plug-In . SVG Version: 2.1.0 Build 142)  -->
  <defs>
    <style>
      .st0, .st1 {
        fill: none;
      }

      .st2 {
        fill: gray;
      }

      .st3 {
        fill: url(#linear-gradient);
      }

      .st4 {
        font-family: Montserrat-SemiBold, Montserrat;
        font-size: 37px;
        font-weight: 600;
      }

      .st4, .st5 {
        isolation: isolate;
      }

      .st6 {
        fill: #fff;
      }

      .st7 {
        fill: #666;
      }

      .st1 {
        stroke: #000;
        stroke-miterlimit: 10;
        stroke-width: 2px;
      }

      .st5 {
        font-family: Montserrat-Regular, Montserrat;
        font-size: 30px;
      }

      .st8 {
        clip-path: url(#clippath);
      }
    </style>
    <clipPath id="clippath">
      <rect class="st0" x="-.5" width="1260" height="750"/>
    </clipPath>
    <linearGradient id="linear-gradient" x1="305" y1="-80.87" x2="305" y2="735.35" gradientTransform="translate(0 92)" gradientUnits="userSpaceOnUse">
      <stop offset=".08" stop-color="#fff"/>
      <stop offset=".43" stop-color="#fefefd"/>
      <stop offset=".55" stop-color="#f9fbf6"/>
      <stop offset=".65" stop-color="#f0f6eb"/>
      <stop offset=".72" stop-color="#e4efda"/>
      <stop offset=".78" stop-color="#d4e5c4"/>
      <stop offset=".84" stop-color="#c0daa8"/>
      <stop offset=".89" stop-color="#a8cc88"/>
      <stop offset=".93" stop-color="#8dbc64"/>
      <stop offset=".96" stop-color="#7cb24c"/>
    </linearGradient>
  </defs>
  <g class="st8">
    <g>
      <rect class="st3" x="-655" y="-.5" width="1920" height="840"/>
      <g id="Layer_2">
        <g id="Layer_2-2">
          <path class="st1" d="M921.2,546.2l-212.6,73.3c-158.3,49.9-224.9,58.7-330.9-78.5s-173.2-67.2-352.7,21.3-596.8,396.6-360-85.8c165.5-334.5-320-70-320-70"/>
        </g>
        <g id="Layer_3">
          <polygon class="st6" points="1192.1 406.9 1062.5 531.7 1022.1 503.9 998.2 487.5 1127.8 430.9 961.8 462.6 907 425.1 1192.1 406.9"/>
          <polygon class="st2" points="1127.8 430.9 998.2 487.5 997.7 487.7 973.3 539.4 961.8 462.6 1127.8 430.9"/>
          <polygon class="st7" points="1022.1 503.9 973.3 539.4 997.7 487.7 998.2 487.5 1022.1 503.9"/>
          <polyline class="st1" points="1022.1 503.9 973.3 539.4 961.8 462.6"/>
          <polygon class="st1" points="998.2 487.5 1127.8 430.9 961.8 462.6 907 425.1 1192.1 406.9 1062.5 531.7 1022.1 503.9 998.2 487.5"/>
          <line class="st1" x1="997.7" y1="487.7" x2="973.3" y2="539.4"/>
        </g>
      </g>
    </g>
    <text class="st4" transform="translate(111.83 257.79)"><tspan x="0" y="0">Telegram Grupları</tspan></text>
    <text class="st5" transform="translate(111.83 303.78)"><tspan x="0" y="0">Telegram gruplarına katılıp öğrenirken öğretebilirsin.</tspan></text>
  </g>
</svg>