<?xml version="1.0" encoding="utf-8"?>
<!-- Generator: Adobe Illustrator 26.3.1, SVG Export Plug-In . SVG Version: 6.00 Build 0)  -->
<svg version="1.1" id="Layer_1" xmlns="http://www.w3.org/2000/svg" xmlns:xlink="http://www.w3.org/1999/xlink" x="0px" y="0px"
	 viewBox="0 0 1920 840" style="enable-background:new 0 0 1920 840;" xml:space="preserve">
<style type="text/css">
	.st0{fill:url(#SVGID_1_);}
	.st1{fill:none;stroke:#000000;stroke-width:2;stroke-miterlimit:10;}
	.st2{fill:#FFFFFF;}
	.st3{fill:#808080;}
	.st4{fill:#666666;}
	.st5{fill:#82BD4E;}
	.st6{fill:url(#SVGID_00000103243093503290093450000010261667024463785623_);}
	.st7{fill:#333333;}
	.st8{fill:none;stroke:#000000;stroke-width:3;stroke-miterlimit:10;}
	.st9{fill:url(#SVGID_00000039815640544800697360000002028299578628473508_);}
	.st10{fill:#D6F9DD;}
	.st11{fill:#1A1A1A;}
	.st12{fill:#EFFDF1;}
	.st13{fill:url(#SVGID_00000120545955615731686510000016561144306651629756_);}
	.st14{fill:#C2FACD;}
	.st15{fill:#99F7AB;}
	.st16{fill:url(#SVGID_00000101073991733222734050000006509076002359784331_);}
	.st17{fill:none;}
	.st18{fill:url(#);}
	.st19{fill:#628E3B;}
	.st20{fill:none;stroke:#000000;stroke-width:2;stroke-linecap:round;stroke-linejoin:round;}
	.st21{fill:#60695C;}
	.st22{font-family:'Montserrat-Bold';}
	.st23{font-size:37px;}
	.st24{font-family:'Montserrat-Regular';}
	.st25{font-size:30px;}
	.st26{font-family:'Montserrat-Medium';}
	.st27{font-size:22px;}
</style>
<g>
	
		<linearGradient id="SVGID_1_" gradientUnits="userSpaceOnUse" x1="959.9001" y1="830.3661" x2="959.9001" y2="14.151" gradientTransform="matrix(1 0 0 -1 0 842)">
		<stop  offset="7.521792e-02" style="stop-color:#FFFFFF"/>
		<stop  offset="0.4276" style="stop-color:#FEFEFD"/>
		<stop  offset="0.5545" style="stop-color:#F9FBF6"/>
		<stop  offset="0.645" style="stop-color:#F0F6EB"/>
		<stop  offset="0.7182" style="stop-color:#E4EFDA"/>
		<stop  offset="0.7808" style="stop-color:#D4E5C4"/>
		<stop  offset="0.8363" style="stop-color:#C0DAA8"/>
		<stop  offset="0.8865" style="stop-color:#A8CC88"/>
		<stop  offset="0.9311" style="stop-color:#8DBC64"/>
		<stop  offset="0.9559" style="stop-color:#7CB24C"/>
	</linearGradient>
	<rect x="-0.1" y="0" class="st0" width="1920" height="840"/>
	<g id="Layer_2_00000111887337087162089190000014680472441762998414_">
		<g id="computer">
			<path class="st2" d="M1764.6,495h45c-13.1,56.5-40,72-40,72h-150.2c-7.4,0-13.4,6-13.4,13.4c0,0.5,0,1.1,0.1,1.6l17.8,146
				c-1.1-0.4-2.2-0.8-3.3-1c-8.5-1.8-16.3,2.9-19.9,5.6c-0.8,0.5-1.5,1.2-2.2,1.8l-1.4-4.9l-58-197.3c-4.5-15.4,4.3-31.5,19.7-36
				c2.6-0.8,5.3-1.2,8.1-1.2L1764.6,495L1764.6,495L1764.6,495z"/>
			<path class="st2" d="M1636.1,478.3l-3.5-2.5l-3.6-2.5c-6.3-3.6-13.4-3.3-16.8-3.3h-16.9c-1.5,0.1-2.8-1-2.9-2.5s1.1-2.8,2.5-2.9
				c0.1,0,0.2,0,0.3,0h4.9c3.9,0,7-3.1,7-7c0-1.5-0.5-3-1.4-4.2c-1.3-1.8-3.4-2.8-5.6-2.8h-17.4c-1.4,0-2.7,0.6-3.7,1.6l-3.7,3.9
				c-1.5,1.6-3.6,2.5-5.8,2.5h-3.2l11.4-11.4c0.9-0.9,2.2-1.5,3.5-1.5h24.3c4.7,0,9.3,1.5,13,4.3l1.1,0.8c3,2.3,6.8,3.5,10.6,3.5
				h3.9C1634,460.5,1634.1,469.9,1636.1,478.3z"/>
			<path class="st10" d="M1636.1,478.3c-2-8.5-2.1-17.8-1.9-23.9c0.1-4,0.4-6.5,0.4-6.5h74v-159c32.7,16.9,108,72.8,108,138
				c0,27.5-2.8,49.8-7,68h-45c-9-15-13-89-13-89v89h-106c-1.8-1.2-3.3-2.8-4.5-4.5h20.1c3,0,5.4-2.4,5.4-5.4s-2.4-5.4-5.4-5.4l0,0
				h-24.8C1636.3,479.2,1636.2,478.8,1636.1,478.3z"/>
			<path class="st11" d="M1764.6,495h-13v-89C1751.6,406,1755.6,480,1764.6,495z"/>
			<path class="st12" d="M1633.7,378.5c3.8-3.4,7.1-7.2,9.9-11.3c2.5-3.5,4-6.2,4-6.2c14,12,61,39.5,61,39.5V448h-25.7
				c0,0-36.3-57-56.3-65C1629.2,381.9,1631.6,380.4,1633.7,378.5z"/>
			<path class="st2" d="M1708.6,288.9v58c-6-19-52.2-85.1-62-44c-10,42-50-19-50-19l-11,9c-5.8-20.2-18.9-42.2-19.9-43.9
				c2.8-1.3,5.2-3.5,6.9-6.1c10-15,10-20,10-20s7,3,10,7s7,0,7,0c-5-1-10-8-11-11s2-11,15-7s6,12,11,20s24,2,24,2s36,39,66,53
				C1705.8,287.5,1707.1,288.2,1708.6,288.9z"/>
			<path class="st11" d="M1665,481.2c2.1,2.1,2.1,5.5,0,7.6c-1,1-2.4,1.6-3.8,1.6h-110.8L1472.9,372h13.8l68.8,105.2
				c1,1.5,2.7,2.4,4.5,2.4h101.1C1662.6,479.6,1664,480.2,1665,481.2z"/>
			<path class="st11" d="M1571.1,198.9c13.6-15.9,42.8-42.8,47.5-10.9c5,34,23,30,27,35s-7,11-7,11s-19,6-24-2s2-16-11-20
				s-16,4-15,7s6,10,11,11c0,0-4,4-7,0s-10-7-10-7s0,5-10,20c-1.7,2.6-4.1,4.8-6.9,6.1c-10.1,4.6-22.7-2.6-23-2.8l0,0
				c-4.2,4.2-10.6,7.1-16.1-0.3c-8.9-11.9,2.8-24.8,12.7-23C1541.9,212.3,1551.1,196.1,1571.1,198.9z"/>
			<path class="st2" d="M1616.6,359c-0.2-1-0.7-1.9-1.3-2.8l0,0c-1.3-1.7-3.4-2.8-5.6-2.8h-13.5c-9.6,0-12.6-5.5-12.6-5.5h19.4
				c16.8,0,21.6,6.4,28.8,13.6c6.9,6.9,11.4,5.7,11.8,5.6c-2.8,4.2-6.2,8-9.9,11.3c-5-3.9-12.6-5.3-15.3-5.3h-15.7
				c-1.5,0-2.7-1.2-2.7-2.7s1.2-2.7,2.7-2.7h7c3.9,0,7.1-3.2,7.1-7.1l0,0C1616.8,360.1,1616.7,359.5,1616.6,359z"/>
			<path class="st11" d="M1630,759.3c4.7,11.6,3.6,19-6.1,19h-49.5c-4.2,0-3.4-2.5-3.4-5.1c0-1.4,0.4-1.8,2.7-2.5
				c1.8-0.5,4.7-1.1,9.4-2.4c10.8-3,23-9.9,23.2-15.4c0,0,13.8,0.5,20-3.4C1627.5,752.8,1628.7,756.2,1630,759.3z"/>
			<path class="st2" d="M1620.6,727c-0.1,4.1,2.5,13.3,5.8,22.5c-6.2,4-20,3.4-20,3.4c0-1.4-0.2-2.8-0.5-4.2
				c-1.4-5.5-3.1-10.9-5.2-16.2C1604.3,729.8,1612.1,725.2,1620.6,727L1620.6,727z"/>
			<path class="st7" d="M1605.8,748.8c0.3,1.4,0.5,2.8,0.5,4.2c-0.2,5.5-12.4,12.5-23.2,15.4c-4.7,1.3-7.6,1.9-9.4,2.4l-0.6-2.1
				l1-0.3c10.8-3,23-9.9,23.2-15.4c0-1-0.1-2-0.3-3C1600,749.9,1603,749.5,1605.8,748.8z"/>
			<path class="st2" d="M1600.7,732.5c2.1,5.3,3.8,10.7,5.2,16.2c-2.9,0.8-5.8,1.1-8.8,1.2c-1.1-6.6-5.4-17.4-5.4-17.4l-0.9-0.1
				c1.8-1.6,3.9-2.6,6.3-3l1.4,4.9C1599.2,733.7,1599.9,733.1,1600.7,732.5z"/>
			<path class="st2" d="M1539,532.1l58,197.3c-2.3,0.4-4.5,1.4-6.3,3c-0.7,0.6-1.4,1.2-2,1.9l-85.6-214.4
				c-3.7-9.3,0.8-19.9,10.1-23.6c2.2-0.9,4.4-1.3,6.8-1.3h46.7c-16,0.1-28.9,13.1-28.9,29.1C1537.8,526.8,1538.2,529.5,1539,532.1z"
				/>
			<path class="st7" d="M1574.4,778.3h-9c-4.2,0-3.4-2.5-3.4-5.1s1.2-1.9,11.1-4.6l0.6,2.1c-2.3,0.6-2.7,1-2.7,2.5
				C1571,775.8,1570.1,778.3,1574.4,778.3z"/>
			<path class="st7" d="M1472.9,372l77.5,118.4h-100.3c-1.8,0-3.5-0.9-4.5-2.4l-75.9-116H1472.9z"/>
			<path class="st1" d="M1596.6,284l-11,9c-5.8-20.2-18.9-42.2-19.9-43.9l-0.1-0.1"/>
			<path class="st1" d="M1708.6,347c-6-19-52.2-85.1-62-44c-10,42-50-19-50-19"/>
			<path class="st1" d="M1542.7,246.3c-4.2,4.2-10.6,7.1-16.1-0.3c-8.9-11.9,2.8-24.8,12.7-23h0.3"/>
			<path class="st1" d="M1547.6,239c-0.4,1.5-2.2,4.7-4.9,7.3"/>
			<path class="st1" d="M1538.6,230c-0.2-2.4,0.1-4.8,0.7-7c2.6-10.6,11.8-26.8,31.8-24l0.5,0.1"/>
			<path class="st1" d="M1542.7,246.3L1542.7,246.3c0.3,0.2,12.9,7.4,23,2.8c2.8-1.3,5.2-3.5,6.9-6.1c10-15,10-20,10-20s7,3,10,7
				s7,0,7,0c-5-1-10-8-11-11s2-11,15-7s6,12,11,20s24,2,24,2s11-6,7-11s-22-1-27-35c-4.7-31.8-33.9-4.9-47.5,10.9
				c-0.9,1.1-1.8,2.1-2.5,3.1"/>
			<path class="st1" d="M1708.6,288.9c32.7,16.9,108,72.8,108,138c0,27.5-2.8,49.8-7,68c-13.1,56.5-40,72-40,72"/>
			<path class="st1" d="M1638.6,234c0,0,36,39,66,53c1.2,0.6,2.6,1.2,4,2"/>
			<path class="st1" d="M1641.1,490.4c1.2,1.8,2.8,3.3,4.5,4.5"/>
			<path class="st1" d="M1708.6,288.9L1708.6,288.9v159h-74c0,0-0.3,2.5-0.4,6.5c-0.2,6.1-0.1,15.5,1.9,23.9
				c0.1,0.4,0.2,0.8,0.3,1.3"/>
			<path class="st1" d="M1751.6,495v-89c0,0,4,74,13,89"/>
			<path class="st1" d="M1626.6,383c20,8,56.3,65,56.3,65"/>
			<path class="st1" d="M1708.6,400.5c0,0-47-27.5-61-39.5c0,0-1.5,2.7-4,6.2c-2.8,4.2-6.2,8-9.9,11.3c-2.1,1.9-4.5,3.4-7.1,4.4"/>
			<path class="st1" d="M1643.6,367.2L1643.6,367.2c-0.3,0.1-4.9,1.3-11.8-5.6c-7.2-7.2-12-13.6-28.8-13.6h-19.4"/>
			<path class="st1" d="M1583.6,348c0,0,3,5.5,12.6,5.5h13.5"/>
			<path class="st1" d="M1582.9,350.7c0,0,3,5.5,12.6,5.5h19.8"/>
			<path class="st1" d="M1581.6,353.5c0,0,3,5.5,12.6,5.5h22.4"/>
			<path class="st1" d="M1609.7,367.8c3.9,0,7.1-3.2,7.1-7.1l0,0c0-0.5-0.1-1.1-0.2-1.6c-0.2-1-0.7-1.9-1.3-2.8l0,0
				c-1.3-1.7-3.4-2.8-5.6-2.8"/>
			<path class="st1" d="M1602.7,367.8c-1.5,0-2.7,1.2-2.7,2.7s1.2,2.7,2.7,2.7"/>
			<path class="st1" d="M1602.7,373.2h15.7c2.7,0,10.2,1.5,15.3,5.3l0.4,0.3"/>
			<line class="st1" x1="1602.7" y1="367.8" x2="1609.7" y2="367.8"/>
			<path class="st1" d="M1600.1,464.5c3.9,0,7-3.1,7-7c0-1.5-0.5-3-1.4-4.2c-1.3-1.8-3.4-2.8-5.6-2.8"/>
			<path class="st1" d="M1595.3,464.5c-1.5-0.1-2.8,1-2.9,2.5s1.1,2.8,2.5,2.9c0.1,0,0.2,0,0.3,0"/>
			<path class="st1" d="M1595.3,470h16.9c3.5,0,10.6-0.3,16.8,3.3l3.6,2.5l3.5,2.5l0.1,0.1"/>
			<line class="st1" x1="1595.3" y1="464.5" x2="1600.1" y2="464.5"/>
			<path class="st1" d="M1600.1,450.6h-17.4c-1.4,0-2.7,0.6-3.7,1.6l-3.7,3.9c-1.5,1.6-3.6,2.5-5.8,2.5h-3.2l11.4-11.4
				c0.9-0.9,2.2-1.5,3.5-1.5h24.3c4.7,0,9.3,1.5,13,4.3l1.1,0.8c3,2.3,6.8,3.5,10.6,3.5h3.9"/>
			<path class="st1" d="M1605.7,453.4h-21.4c-1.4,0-2.7,0.6-3.6,1.6l-3.7,3.9c-1.5,1.6-3.6,2.5-5.8,2.5h-3.2"/>
			<path class="st1" d="M1606.9,456.5h-21.3c-1.4,0-2.7,0.6-3.6,1.6l-3.7,3.9c-1.5,1.6-3.6,2.5-5.8,2.5h-3.2"/>
			<path class="st1" d="M1809.6,495h-242.8c-16,0-29,13-28.9,29c0,2.8,0.4,5.5,1.2,8.1l58,197.3l1.4,4.9c0.7-0.6,1.4-1.2,2.2-1.8
				c3.6-2.7,11.4-7.4,19.9-5.6c1.1,0.2,2.2,0.6,3.3,1l-17.8-146c-0.9-7.4,4.3-14,11.7-15c0.5-0.1,1.1-0.1,1.6-0.1h300.7"/>
			<path class="st1" d="M1623.8,778.3c9.7,0,10.8-7.4,6.1-19c-1.2-3.1-2.5-6.4-3.7-9.8c-3.2-9.2-5.9-18.5-5.8-22.5"/>
			<path class="st1" d="M1600.7,732.5c2.1,5.3,3.8,10.7,5.2,16.2c0.3,1.4,0.5,2.8,0.5,4.2c-0.2,5.5-12.4,12.5-23.2,15.4
				c-4.7,1.3-7.6,1.9-9.4,2.4c-2.3,0.6-2.7,1-2.7,2.5c0,2.5-0.8,5.1,3.4,5.1"/>
			<path class="st1" d="M1606.3,752.9c0,0,13.8,0.5,20-3.4"/>
			<path class="st1" d="M1566.8,495h-46.7c-10.1,0-18.2,8.1-18.2,18.2c0,2.3,0.4,4.6,1.3,6.8l85.6,214.4c0.6-0.7,1.3-1.3,2-1.9
				c1.8-1.6,3.9-2.6,6.3-3"/>
			<path class="st1" d="M1597,749.9L1597,749.9c3,0,5.9-0.4,8.8-1.2"/>
			<path class="st1" d="M1565.4,778.3c-4.2,0-3.4-2.5-3.4-5.1s1.2-1.9,11.1-4.6l1-0.3c10.8-3,23-9.9,23.2-15.4c0-1-0.1-2-0.3-3
				c-1.1-6.6-5.4-17.4-5.4-17.4"/>
			<path class="st1" d="M1623.8,778.3c0,0-238,7.1-560.9-0.3c-219-5-145-178-301-263c-187.1-101.9-294,7-457-181
				C241.8,261.3,0,376.9,0,376.9"/>
			<path class="st1" d="M1369.7,372l75.9,116c1,1.5,2.7,2.4,4.5,2.4h211.1c3,0,5.4-2.4,5.4-5.4s-2.4-5.4-5.4-5.4l0,0h-101.1
				c-1.8,0-3.5-0.9-4.5-2.4L1486.7,372"/>
			<polyline class="st1" points="1486.7,372 1472.9,372 1369.7,372 			"/>
			<line class="st1" x1="1472.9" y1="372" x2="1550.4" y2="490.4"/>
		</g>
	</g>
</g>
<path class="st5" d="M556.9,403.4H474c-6.6,0-12-5.4-12-12v-21.4c0-6.6,5.4-12,12-12h82.9c6.6,0,12,5.4,12,12v21.4
	C568.9,398,563.5,403.4,556.9,403.4z"/>
<text transform="matrix(1 0 0 1 463.9026 257.2857)" class="st22 st23">Kaynaklar</text>
<text transform="matrix(1 0 0 1 463.9023 303.2808)"><tspan x="0" y="0" class="st24 st25">Geliştirdiğin veya öğrenmek istediğin programlama diline </tspan><tspan x="0" y="36" class="st24 st25">ait içerikleri bulabilirsin.</tspan></text>
<text transform="matrix(1 0 0 1 483.1929 387.2067)" class="st2 st26 st27">Gözat</text>
</svg>
