<?xml version="1.0" encoding="UTF-8"?>
<svg id="Layer_1" xmlns="http://www.w3.org/2000/svg" xmlns:xlink="http://www.w3.org/1999/xlink" version="1.1" viewBox="0 0 1260 750">
  <!-- Generator: Adobe Illustrator 29.1.0, SVG Export Plug-In . SVG Version: 2.1.0 Build 142)  -->
  <defs>
    <style>
      .st0, .st1 {
        fill: none;
      }

      .st2 {
        fill: url(#linear-gradient);
      }

      .st3 {
        fill: #99f7ab;
      }

      .st4 {
        font-family: Montserrat-SemiBold, Montserrat;
        font-size: 37px;
        font-weight: 600;
      }

      .st4, .st5 {
        isolation: isolate;
      }

      .st6 {
        fill: #fff;
      }

      .st7 {
        fill: #666;
      }

      .st8 {
        fill: #c2facd;
      }

      .st1 {
        stroke: #000;
        stroke-miterlimit: 10;
        stroke-width: 2px;
      }

      .st5 {
        font-family: Montserrat-Regular, Montserrat;
        font-size: 30px;
      }

      .st9 {
        fill: #333;
      }

      .st10 {
        clip-path: url(#clippath);
      }
    </style>
    <clipPath id="clippath">
      <rect class="st0" x="-.5" width="1260" height="750"/>
    </clipPath>
    <linearGradient id="linear-gradient" x1="948.27" y1="-128.57" x2="948.27" y2="687.65" gradientTransform="translate(0 92)" gradientUnits="userSpaceOnUse">
      <stop offset=".08" stop-color="#fff"/>
      <stop offset=".43" stop-color="#fefefd"/>
      <stop offset=".55" stop-color="#f9fbf6"/>
      <stop offset=".65" stop-color="#f0f6eb"/>
      <stop offset=".72" stop-color="#e4efda"/>
      <stop offset=".78" stop-color="#d4e5c4"/>
      <stop offset=".84" stop-color="#c0daa8"/>
      <stop offset=".89" stop-color="#a8cc88"/>
      <stop offset=".93" stop-color="#8dbc64"/>
      <stop offset=".96" stop-color="#7cb24c"/>
    </linearGradient>
  </defs>
  <g class="st10">
    <g>
      <g>
        <rect class="st2" x="-11.73" y="-48.2" width="1920" height="840"/>
        <g>
          <path class="st6" d="M308.07,598.3c-5.4-2.5-10.5-5.5-15.3-9l-14.7-52.5h0c5.6-.7,11.1-1.9,16.5-3.5l.2.7c1.5,1.7,27.8,25,34.9,31.1,12.7,10.8,17.8,14,3.8,48.2-11.4,28-12.3,41.4-15.2,79.3-10-5.7-27.1-1.2-27.1-1.2l11.5-65.6c2-10.5,3.9-20.1,5.4-27.5Z"/>
          <path class="st6" d="M437.97,434.9c.2.7-.2,1.4-.9,1.5h-.4c-.4,0-.7-.2-.9-.5l-4-5.1c-1.8-2.2-5-2.6-7.2-.9l-.1.1c-.4.3-.7.7-1,1.1l-5.6,8.5c-.4.7-.9,1.3-1.5,1.9-2.9,3.1-6.9,4.9-11.1,4.9h-15.4v-14h5.4c4.3,0,8.3-2.2,10.6-5.8l2-3.1c2-3.1,5.5-5,9.2-5h10.8c3.5,0,6.6,2.4,7.5,5.8l2.6,10.6Z"/>
          <path class="st6" d="M255.07,651.7c-2.7,4.4-4.1,5.2-4.3,6.3l-.4-.1c-7.2-9.8-16.5-5.8-17-5.5,4.9-2.6,8-8,8.2-8.3,4,3.2,8.6,5.8,13.5,7.6Z"/>
          <polygon points="618.97 456.5 618.97 465.8 595.17 465.8 287.47 465.8 270.67 465.8 270.67 456.5 618.97 456.5"/>
          <path d="M572.47,373l-43.7,77.5h-139v-4.1h15.4c4.2,0,8.3-1.8,11.1-4.9h112.2l38.5-68.5h5.5Z"/>
          <polygon class="st6" points="566.97 373 528.57 441.6 454.07 441.6 492.47 373 566.37 373 566.97 373"/>
          <path class="st8" d="M389.77,446.5v4.1h-73.6c-29.2,0-29.8-.6-66.8-37.6s-29.2-60-3-65.1c0,0,14.6,23.9,27.2,44,1.6,2.5,3.1,5,4.6,7.3,2.6,4.2,5.1,8,7.1,11.2,12.3,19,14.8,19.6,54.1,19.6h50.3l.1,16.5h0Z"/>
          <path class="st7" d="M346.87,718.8c.8,3.3-3.6,7.6-7.8,9-2.8,1-4.5.8-8.1-.1l-4.1-14.8c8.2,4,17.6,2.5,17.6,2.5,0,0,1.6.1,2.4,3.4Z"/>
          <path class="st7" d="M326.87,713l4.1,14.8c-1.8-.5-4.1-1.1-7.3-1.8-6.9-1.6-23.4,1.9-31.2,1.9-2.9,0-4.6-.5-4.2-1.9.7-2.3,1.9-9,3-16h0c16.8,2.4,27-4.6,27-4.6,2.1,3.3,5.1,5.9,8.6,7.6Z"/>
          <path class="st6" d="M287.47,489.8c21.9-9,77.1-25.4,27.4,62.1-10.3-9.1-20-18-20-18l-.2-.7c16.9-5.2,20.2-12.5,20.2-12.5h-13c-8-8.6-15.4-17.8-22-27.5,1-.5,3.8-1.8,7.6-3.4Z"/>
          <path d="M301.77,520.8h13s-3.3,7.3-20.2,12.5c-5.4,1.6-10.9,2.8-16.5,3.5-8.5,1.1-17.1,1.7-25.8,1.6-8.8,0-17.6-.5-26.3-1.6-32.9-4.3-42.2-16-42.2-16h118Z"/>
          <path class="st6" d="M312.07,690.8l-.1.5s-1.4,1.1,6.4,14.1c0,0-10.3,7-27,4.6.1-.8.2-1.6.4-2.4,1.3-8.4,2.4-16.3,2.4-16.3,5.8-1.6,12-1.7,17.9-.5Z"/>
          <path class="st9" d="M313.27,345.2c0,17-12.7,16-12.7,29.7.1,8.5,2.3,16.9,6.4,24.4h-28.8c-1.5-2.3-3-4.8-4.6-7.3h.1c32.4-31.5.5-53.9-20.7-77.6-1.3-1.5-2.5-3-3.6-4.4-15.6-20.9-1.7-32.3-1.7-32.3,6.2,3.9,14.1,5.7,20.2-1.5,8.9-10.5,0-33,0-33l11.4-1.6s-11.6-13.7-14.8-30c5.5,22.6,39.2,24.8,39.2,45,0,22-21.1,20.1-21.1,46s30.7,25.6,30.7,42.6Z"/>
          <path class="st3" d="M279.77,493.3c6.6,9.7,14,18.9,22,27.5h-85.7c-28.2-28.2-40.9-68-42.1-107.4-1.1-39.4,9.4-78.4,27.8-104.9,0,0,21.6,27.4,47.7,1.3,1.1,1.4,2.2,2.9,3.6,4.4,21.1,23.7,53.1,46.1,20.7,77.6h-.1c-12.6-20.1-27.2-44-27.2-44-26.2,5.1-34,28.1,3,65.1-.1,29.8,15.9,59.6,30.3,80.4Z"/>
          <path class="st6" d="M241.47,644.1c-1.3-1-2-1.7-2-1.7,3.5-4.9,9.6-20.1,14.9-37.1,4.9-15.7,9.2-32.9,10.3-44.9,7.6,11.2,17.1,21,28,29l1,3.6c-1.8,7.1-9,28.9-36.3,59.4-.5-.1-1-.3-1.5-.4l-.9-.3c-4.8-1.8-9.4-4.4-13.5-7.6Z"/>
          <path class="st6" d="M278.07,536.8l14.6,52.6c-10.9-8-20.4-17.8-28-29-4.9-6.9-9-14.3-12.4-22.1,8.6.1,17.2-.5,25.8-1.5h0Z"/>
          <path class="st6" d="M224.07,219.4c14-22.7,35.6-23,39.1-22.9.3,2.3.5,4.7.5,7v1.8h0c0,2.1.3,4.1.8,6.1,3.2,16.3,14.8,30,14.8,30l-11.4,1.6s8.9,22.5,0,33c-6.1,7.2-14,5.4-20.2,1.5,0,0-13.9,11.4,1.7,32.3-26,26-47.7-1.3-47.7-1.3,36.8-52.9,12-61.3,12-74-6.1,0-11-5-10.9-11.1s5-11,11.1-10.9c4.4,0,8.4,2.7,10.1,6.8l.1.1Z"/>
          <path d="M263.17,196.5c-3.5-.1-25.2.2-39.1,22.9l-.2-.1c-2.4-5.6-8.8-8.2-14.4-5.9-5.6,2.4-8.2,8.8-5.9,14.4,1.7,4.1,5.7,6.7,10.1,6.7,0,12.7,24.8,21.1-12,74-18.4,26.4-28.9,65.4-27.8,104.9h-.6s-19.9,10.8-38.9,0,7-37.4,7-55.8-29.8-17.1-29.8-45,35.5-35.5,50.1-50.1-4-37.5-4-58.9c0-27.6,28.4-50,56-50,24.9-.1,46,18.2,49.5,42.9Z"/>
          <path class="st7" d="M252.87,664.3c.8,1.9,1.3,4,1.4,6.1-.1,2.7-.9,5.3-2.5,7.6-1.7,2.8-1.8,5.5.9,16.1,2.5,9.7-1.2,14.9-2.3,16.1,4-4.7-1.9-16.5-2.5-21.9-.9-6.8,5.7-16.3,2.1-23.3s-15.4-10-19.9-7c-2.6,1.7-4.1,4.6-4.1,7.7-.8-4.9,2.7-10.9,7.3-13.3h0c.5-.3,9.8-4.3,17,5.5l.4.1c-.2.9.6,2.1,2.2,6.3Z"/>
          <path d="M226.07,665.7c0-3.1,1.6-6,4.1-7.7,4.5-3,16.3,0,19.9,7s-3,16.5-2.1,23.3c.7,5.4,6.5,17.2,2.5,21.9v.1c-1,1.2-2.6,1.9-5,2-12.3.4-7.8-18.5-9.9-29.4-.9-4.6-3.8-6.1-7.2-10.6-1.6-2-2.4-4.3-2.3-6.6Z"/>
          <path class="st1" d="M213.67,234.5c-6.1,0-11-4.9-11-11s4.9-11,11-11c4.4,0,8.4,2.6,10.1,6.7"/>
          <path class="st1" d="M223.97,219.5l.1-.2c14-22.7,35.6-23,39.2-22.9h.5"/>
          <path class="st1" d="M263.77,205.4c.1,2,.4,4.1.8,6.1,3.2,16.3,14.8,30,14.8,30l-11.4,1.6s8.9,22.5,0,33c-6.1,7.2-14,5.4-20.2,1.5-2.6-1.7-5-3.7-7.1-6-5.7-6.3-11.7-6.7-11.7-6.7"/>
          <path class="st1" d="M173.17,413.4s-19.9,10.8-38.9,0,7-37.4,7-55.8-29.8-17.1-29.8-45,35.5-35.5,50.1-50.1-3.9-37.5-3.9-58.9c0-27.6,28.4-50,56-50,24.9,0,46,18.3,49.5,43,.3,2.3.5,4.7.5,7v1.8"/>
          <path class="st1" d="M278.17,399.2h28.8c-4.1-7.5-6.3-15.8-6.4-24.4,0-13.6,12.7-12.7,12.7-29.7s-30.6-16.8-30.6-42.7,21.1-24,21.1-46c0-20.2-33.6-22.4-39.2-45.1-.5-2-.8-4-.8-6.1h0v-.5"/>
          <path class="st1" d="M213.67,234.5c0,12.7,24.8,21.1-12,74-18.4,26.4-28.9,65.4-27.8,104.9s13.9,79.2,42.1,107.4"/>
          <path class="st1" d="M247.67,277.5s-13.9,11.4,1.7,32.3c1.1,1.4,2.2,2.9,3.6,4.4,21.1,23.7,53.1,46.1,20.7,77.6"/>
          <path class="st1" d="M389.77,450.6h-73.6c-29.2,0-29.8-.6-66.8-37.6s-29.2-60-3-65.1c0,0,14.6,23.9,27.2,44,1.6,2.5,3.1,5,4.6,7.3,2.6,4.2,5.1,8,7.1,11.2,12.3,19,14.8,19.6,54.1,19.6h50.3l.1,20.6h0Z"/>
          <path class="st1" d="M301.77,520.8c-8-8.6-15.4-17.8-22-27.5-14.3-20.7-30.4-50.6-30.4-80.3"/>
          <path class="st1" d="M201.67,308.5s21.6,27.4,47.7,1.3"/>
          <path class="st1" d="M389.77,446.5h15.4c4.2,0,8.3-1.8,11.1-4.9.5-.6,1-1.2,1.5-1.9l5.6-8.5c.3-.4.6-.8,1-1.1,2.2-1.8,5.4-1.6,7.3.6,0,0,.1.1.1.2l4,5.1c.2.3.5.5.9.5.7.1,1.3-.5,1.4-1.2v-.4l-2.7-10.5c-.9-3.4-3.9-5.8-7.5-5.8h-10.8c-3.7,0-7.2,1.9-9.2,5.1l-2,3.1c-2.3,3.6-6.3,5.8-10.6,5.8h-5.4"/>
          <path class="st1" d="M427.37,429.7l7,8.6c.2.3.6.5,1,.5.7,0,1.3-.6,1.3-1.3v-.3"/>
          <path class="st1" d="M424.37,430.3l8.8,10.8c.2.3.6.5,1,.5.7,0,1.3-.6,1.3-1.3v-.3"/>
          <path class="st1" d="M279.27,493.5l.5-.2c1.1-.5,3.9-1.9,7.7-3.4,21.9-9,77.1-25.4,27.4,62.1"/>
          <path class="st1" d="M294.77,533.9s9.7,8.9,20,18c5.2,4.7,10.6,9.4,14.9,13,12.7,10.8,17.8,14,3.8,48.2-11.4,28-14.7,51.8-15.2,68.9-.1,3.8-.1,7.3,0,10.4"/>
          <path class="st1" d="M314.77,601.1c-2.3-.8-4.6-1.8-6.8-2.8-4.8-2.2-9.4-4.9-13.8-7.9-.5-.3-1-.7-1.5-1.1-10.9-8-20.4-17.8-28-29-4.9-6.9-9-14.3-12.4-22.1"/>
          <path class="st1" d="M290.37,692.5s6.6-36.4,12.3-66.8c2-10.4,3.8-20,5.3-27.3,0-.1.1-.2.1-.4"/>
          <path class="st1" d="M290.37,692.5c1.2-.5,2.5-.9,3.7-1.3,5.9-1.5,12-1.7,18-.5,2.1.4,4.2,1,6.3,1.7"/>
          <path class="st1" d="M291.27,710c-1.1,7-2.3,13.7-3,16-.4,1.4,1.3,1.9,4.2,1.9,7.8,0,24.3-3.5,31.2-1.9,3.2.7,5.5,1.3,7.3,1.8,3.7.9,5.4,1.1,8.1.1,4.1-1.4,8.6-5.7,7.8-9s-2.4-3.3-2.4-3.3c0,0-9.4,1.5-17.6-2.5-3.5-1.7-6.5-4.3-8.5-7.7-7.8-13-6.4-14.1-6.4-14.1"/>
          <path class="st1" d="M294.17,691.2s-1.1,7.9-2.4,16.3c-.1.8-.3,1.6-.4,2.4"/>
          <path class="st1" d="M291.27,710h0c16.8,2.4,27-4.6,27-4.6"/>
          <path class="st1" d="M264.67,560.4c-1.1,12-5.4,29.2-10.3,44.9-5.3,17-11.4,32.2-14.9,37.1,0,0,.7.7,2,1.7,4.1,3.2,8.6,5.8,13.5,7.6l.9.3c.5.2,1,.3,1.5.4"/>
          <path class="st1" d="M294.17,590.5c-.1.8-.3,1.7-.5,2.5-1.8,7.1-9,28.9-36.3,59.4"/>
          <path class="st1" d="M250.37,710.2c4-4.7-1.9-16.5-2.5-21.9-.9-6.8,5.7-16.3,2.1-23.3s-15.4-10-19.9-7c-2.6,1.7-4.1,4.6-4.1,7.7,0,2.4.8,4.7,2.2,6.5,3.4,4.4,6.3,6,7.2,10.6,2.2,10.9-2.3,29.8,9.9,29.4,2.5-.1,4.1-.8,5.1-2"/>
          <path class="st1" d="M250.17,710.5c.1-.1.1-.2.2-.2v-.1c1.1-1.2,4.8-6.3,2.3-16.1-2.7-10.5-2.6-13.3-.9-16.1,1.5-2.3,2.4-4.9,2.5-7.6-.1-2.1-.5-4.2-1.4-6.1-1.6-4.2-2.4-5.4-2.1-6.3.2-1,1.6-1.9,4.3-6.3"/>
          <path class="st1" d="M233.27,652.4c-4.6,2.4-8.1,8.4-7.3,13.3.1.5.2,1,.4,1.5"/>
          <path class="st1" d="M241.47,644.1h0c-.2.3-3.3,5.7-8.2,8.3"/>
          <path class="st1" d="M233.27,652.4h0c.5-.3,9.8-4.3,17,5.5"/>
          <path class="st1" d="M226.07,536.8c-32.9-4.3-42.2-16-42.2-16h131s-3.3,7.3-20.2,12.5c-5.4,1.6-10.9,2.8-16.5,3.5-8.5,1.1-17.1,1.7-25.8,1.6-8.8,0-17.6-.6-26.3-1.6Z"/>
          <line class="st1" x1="225.97" y1="536.8" x2="173.17" y2="730.1"/>
          <polyline class="st1" points="255.87 652 256.47 670.3 258.27 730.1"/>
          <line class="st1" x1="252.27" y1="538.3" x2="254.37" y2="605.3"/>
          <polyline class="st1" points="331.57 730.1 330.97 727.8 326.87 713 318.37 682.1 302.67 625.7 293.67 593 292.67 589.4 278.07 536.8"/>
          <line class="st1" x1="595.17" y1="465.8" x2="595.17" y2="730.1"/>
          <polygon class="st1" points="595.17 465.8 618.97 465.8 618.97 456.5 270.67 456.5 270.67 465.8 287.47 465.8 595.17 465.8"/>
          <polyline class="st1" points="416.27 441.6 434.17 441.6 454.07 441.6 528.57 441.6 566.97 373"/>
          <polyline class="st1" points="522.77 450.6 528.77 450.6 572.47 373 566.97 373 566.37 373 492.47 373"/>
          <line class="st1" x1="454.07" y1="441.6" x2="492.47" y2="373"/>
          <polyline class="st1" points="389.77 450.6 522.67 450.6 522.77 450.6"/>
          <polyline class="st1" points="1908.27 730.1 595.17 730.1 331.57 730.1 292.47 730.1 258.27 730.1 173.17 730.1 81.67 730.1 41.97 518.8 -11.73 518.8"/>
          <line class="st1" x1="287.47" y1="465.8" x2="287.47" y2="489.8"/>
        </g>
      </g>
      <text class="st4" transform="translate(595.07 232.08)"><tspan x="0" y="0">Projeler</tspan></text>
      <text class="st5" transform="translate(595.07 278.08)"><tspan x="0" y="0">Aktif açık kaynak projelerimize katılap, </tspan><tspan x="0" y="36">kendinizi Geliştirebilirsiniz.</tspan></text>
    </g>
  </g>
</svg>