<?xml version="1.0" encoding="utf-8"?>
<!-- Generator: Adobe Illustrator 26.3.1, SVG Export Plug-In . SVG Version: 6.00 Build 0)  -->
<svg version="1.1" id="Layer_1" xmlns="http://www.w3.org/2000/svg" xmlns:xlink="http://www.w3.org/1999/xlink" x="0px" y="0px"
	 viewBox="0 0 1920 840" style="enable-background:new 0 0 1920 840;" xml:space="preserve">
<style type="text/css">
	.st0{fill:none;}
	.st1{fill:#231F20;}
	.st2{fill:url(#SVGID_1_);}
	.st3{fill:none;stroke:#000000;stroke-width:2;stroke-miterlimit:10;}
	.st4{fill:#FFFFFF;}
	.st5{fill:#808080;}
	.st6{fill:#666666;}
	.st7{fill:#82BD4E;}
	.st8{fill:url(#SVGID_00000170992180853861699570000002142141861336232065_);}
	.st9{fill:#333333;}
	.st10{fill:none;stroke:#000000;stroke-width:3;stroke-miterlimit:10;}
	.st11{fill:url(#SVGID_00000144319540580797275790000003808970331506542998_);}
	.st12{fill:#D6F9DD;}
	.st13{fill:#1A1A1A;}
	.st14{fill:#EFFDF1;}
	.st15{fill:url(#SVGID_00000016074927273789922980000012829473299604228282_);}
	.st16{fill:#C2FACD;}
	.st17{fill:#99F7AB;}
	.st18{fill:url(#SVGID_00000181770892653876082290000006377965919615611014_);}
	.st19{fill:url(#SVGID_00000181770765579557706010000008646227595177438125_);}
	.st20{fill:#628E3B;}
	.st21{fill:none;stroke:#000000;stroke-width:2;stroke-linecap:round;stroke-linejoin:round;}
	.st22{fill:url(#SVGID_00000090992341784518796930000008290226083909485456_);}
	.st23{fill:#60695C;}
	.st24{fill:url(#SVGID_00000154411930320022371320000010648808788091326879_);}
	.st25{font-family:'Montserrat-Bold';}
	.st26{font-size:37px;}
	.st27{font-family:'Montserrat-Regular';}
	.st28{font-size:30px;}
	.st29{font-family:'Montserrat-Medium';}
	.st30{font-size:22px;}
</style>
<pattern  x="-3843" y="961" width="28.8" height="28.8" patternUnits="userSpaceOnUse" id="SVGID_0000013928544659637306009" viewBox="1.4 -30.3 28.8 28.8" style="overflow:visible;">
	<g>
		<rect x="1.4" y="-30.3" class="st0" width="28.8" height="28.8"/>
		<g>
			<rect x="1.4" y="-30.3" class="st0" width="28.8" height="28.8"/>
			<g>
				<rect x="1.4" y="-30.3" class="st0" width="28.8" height="28.8"/>
				<g>
					<rect x="1.4" y="-30.3" class="st0" width="28.8" height="28.8"/>
					<rect x="1.4" y="-30.3" class="st0" width="28.8" height="28.8"/>
					<path class="st1" d="M30.2,0c0.8,0,1.4-0.6,1.4-1.4S31-2.8,30.2-2.8s-1.4,0.6-1.4,1.4C28.8-0.7,29.4,0,30.2,0L30.2,0z"/>
					<path class="st1" d="M15.8,0c0.8,0,1.5-0.6,1.5-1.4s-0.6-1.5-1.4-1.5c-0.8,0-1.5,0.6-1.5,1.4l0,0C14.4-0.7,15.1,0,15.8,0z"/>
					<path class="st1" d="M30.2-14.4c0.8,0,1.4-0.6,1.4-1.4c0-0.8-0.6-1.4-1.4-1.4s-1.4,0.6-1.4,1.4C28.8-15.1,29.4-14.4,30.2-14.4
						L30.2-14.4z"/>
					<path class="st1" d="M15.8-14.4c0.8,0,1.5-0.6,1.5-1.4c0-0.8-0.6-1.5-1.4-1.5c-0.8,0-1.5,0.6-1.5,1.4l0,0
						C14.4-15.1,15.1-14.4,15.8-14.4z"/>
					<path class="st1" d="M8.6-7.3C9.4-7.3,10-8,10-8.7c0-0.8-0.6-1.4-1.4-1.4c-0.8,0-1.4,0.6-1.4,1.4l0,0C7.2-7.9,7.9-7.3,8.6-7.3z
						"/>
					<path class="st1" d="M23-7.3c0.8,0,1.4-0.6,1.4-1.4s-0.6-1.4-1.4-1.4s-1.4,0.6-1.4,1.4S22.2-7.3,23-7.3L23-7.3z"/>
					<path class="st1" d="M8.6-21.6c0.8,0,1.4-0.6,1.4-1.4s-0.6-1.4-1.4-1.4s-1.4,0.5-1.4,1.3S7.8-21.6,8.6-21.6L8.6-21.6z"/>
					<path class="st1" d="M23-21.6c0.8,0,1.4-0.6,1.4-1.4s-0.6-1.4-1.4-1.4s-1.4,0.6-1.4,1.4S22.2-21.6,23-21.6L23-21.6z"/>
					<path class="st1" d="M1.4,0c0.8,0,1.4-0.6,1.4-1.4l0,0c0-0.8-0.7-1.4-1.4-1.4C0.6-2.8,0-2.2,0-1.4C0-0.7,0.6,0,1.4,0L1.4,0z"/>
					<path class="st1" d="M1.4-14.4c0.8,0,1.4-0.6,1.4-1.4l0,0c0-0.8-0.7-1.4-1.4-1.4S0-16.6,0-15.9C0-15.1,0.6-14.4,1.4-14.4
						L1.4-14.4z"/>
					<path class="st1" d="M30.2-28.8c0.8,0,1.4-0.6,1.4-1.4c0.1-0.9-0.6-1.5-1.4-1.5l0,0c-0.8,0-1.4,0.6-1.4,1.4l0,0
						C28.8-29.5,29.4-28.8,30.2-28.8z"/>
					<path class="st1" d="M15.8-28.8c0.8,0,1.4-0.6,1.4-1.4s-0.6-1.4-1.4-1.4l0,0c-0.8,0-1.4,0.7-1.4,1.4
						C14.4-29.5,15.1-28.8,15.8-28.8z"/>
					<path class="st1" d="M1.4-28.8c0.8,0,1.4-0.6,1.4-1.4c0.1-0.9-0.6-1.5-1.4-1.5l0,0c-0.7,0-1.4,0.6-1.4,1.4l0,0
						C0-29.5,0.6-28.8,1.4-28.8L1.4-28.8z"/>
				</g>
			</g>
		</g>
	</g>
</pattern>
<g>
	
		<linearGradient id="SVGID_1_" gradientUnits="userSpaceOnUse" x1="960.2" y1="830.3661" x2="960.2" y2="14.151" gradientTransform="matrix(1 0 0 -1 0 842)">
		<stop  offset="7.521792e-02" style="stop-color:#FFFFFF"/>
		<stop  offset="0.4276" style="stop-color:#FEFEFD"/>
		<stop  offset="0.5545" style="stop-color:#F9FBF6"/>
		<stop  offset="0.645" style="stop-color:#F0F6EB"/>
		<stop  offset="0.7182" style="stop-color:#E4EFDA"/>
		<stop  offset="0.7808" style="stop-color:#D4E5C4"/>
		<stop  offset="0.8363" style="stop-color:#C0DAA8"/>
		<stop  offset="0.8865" style="stop-color:#A8CC88"/>
		<stop  offset="0.9311" style="stop-color:#8DBC64"/>
		<stop  offset="0.9559" style="stop-color:#7CB24C"/>
	</linearGradient>
	<rect x="0.2" class="st2" width="1920" height="840"/>
	<g>
		<rect x="1538.4" y="700.8" class="st0" width="36" height="50"/>
		<path d="M1539.9,702.3h33v47h-33V702.3 M1536.9,752.3h39v-53h-39V752.3z"/>
		<rect x="1680.4" y="410.8" class="st0" width="75" height="103"/>
		<path d="M1681.9,412.3h72v100h-72V412.3 M1678.9,515.3h78v-106h-78V515.3z"/>
		<path class="st7" d="M1712.4,736.2c6.5,13.8,9,27.7-0.5,44.5c-3.9,7-10,14.4-18.7,22.6v2h102.7v-63c-27-40.9-16.4-77.4-9.1-116.7
			c7.4-39.6-37.4-65.8-73.1-64.9c-31.7,0.8-75,12.8-78.3,58.8c12.2-3.2,24.9-4.4,37.6-3.6c0,0,38.5,0.4,41.1,43.1
			c0,0,17.4-30.1,25.7-21.8c8.3,8.3,1.3,24.8-10.4,37.4c-10,10.8-21.9,33.6-19.6,52.2C1710.1,730.2,1711,733.3,1712.4,736.2z"/>
		<path class="st4" d="M1714.1,659.1c-2.6-42.7-41.1-43.1-41.1-43.1s-11,44.4-16.3,54.9c3.1,1.9,6.8,2.5,10.4,1.7
			c0,0-18.5,61.6,18.3,60.9c6.4-0.1,14.4-2.1,24.4-6.5c-2.4-18.6,9.6-41.4,19.6-52.2c11.8-12.7,18.7-29.2,10.4-37.4
			C1731.5,629,1714.1,659.1,1714.1,659.1z"/>
		<path class="st4" d="M1709.8,727c-10,4.5-18,6.4-24.4,6.5c-0.8,13.5-5.1,26.6-12.4,37.9c0,0,13.8,6.8,38.9,9.2
			c9.5-16.8,7-30.6,0.5-44.5C1711,733.3,1710.1,730.2,1709.8,727z"/>
		
			<pattern  id="SVGID_00000077308066726713765960000008357043550408823468_" xlink:href="#SVGID_0000013928544659637306009" patternTransform="matrix(1 0 0 1 -7753.6797 29343.9609)">
		</pattern>
		<path style="fill:url(#SVGID_00000077308066726713765960000008357043550408823468_);" d="M1672.9,771.4
			c-10.8,16.4-31.1,31.8-69,31.8v2h89.2v-2c8.7-8.2,14.7-15.6,18.7-22.6C1686.7,778.2,1673,771.4,1672.9,771.4z"/>
		<path class="st20" d="M1656.7,670.9c5.3-10.5,16.3-54.9,16.3-54.9c-12.6-0.8-25.3,0.4-37.6,3.6c-0.4,6.4-0.2,12.9,0.8,19.3
			c8.7,62-34.8,95.1-34.8,95.1h-0.5v71.2h3.1v-2c37.9,0,58.2-15.5,69-31.8c7.4-11.3,11.7-24.4,12.4-37.9
			c-36.8,0.7-18.3-60.9-18.3-60.9C1663.5,673.4,1659.8,672.8,1656.7,670.9z"/>
		<polygon class="st10" points="1795.9,540.3 1600.9,540.3 1600.9,734 1600.9,805.3 1603.9,805.3 1693.2,805.3 1795.9,805.3 
			1795.9,742.3 		"/>
		<path class="st3" d="M1693.2,803.2c8.7-8.2,14.7-15.6,18.7-22.6c9.5-16.8,7-30.6,0.5-44.5c-1.3-2.9-2.2-6-2.6-9.2
			c-2.4-18.6,9.6-41.4,19.6-52.2c11.8-12.6,18.7-29.1,10.4-37.4s-25.7,21.8-25.7,21.8c-2.6-42.7-41.1-43.1-41.1-43.1
			s-11,44.4-16.3,54.9c3.1,1.9,6.8,2.5,10.4,1.7c0,0-18.5,61.6,18.3,60.9c6.4-0.1,14.4-2.1,24.4-6.5l0.9-0.4"/>
		<path class="st3" d="M1796.6,743.3c-0.2-0.3-0.5-0.7-0.7-1c-27-40.9-16.4-77.4-9.1-116.7c7.4-39.6-37.4-65.8-73.1-64.9
			c-31.7,0.8-75,12.8-78.3,58.8c-0.4,6.4-0.2,12.9,0.8,19.3c8.7,62-34.8,95.1-34.8,95.1"/>
		<path class="st3" d="M1635.4,619.6L1635.4,619.6c12.2-3.2,24.9-4.4,37.6-3.6"/>
		<path class="st3" d="M1604,803.2c37.9,0,58.2-15.5,69-31.8c7.4-11.3,11.7-24.4,12.4-37.9"/>
		<path class="st21" d="M1711.9,780.6c-25.2-2.4-38.9-9.2-38.9-9.2"/>
		
			<pattern  id="SVGID_00000121987793995481261370000004905936866006517397_" xlink:href="#SVGID_0000013928544659637306009" patternTransform="matrix(1 0 0 1 -7753.6797 29343.9609)">
		</pattern>
		<path style="fill:url(#SVGID_00000121987793995481261370000004905936866006517397_);" d="M1651.7,503.3c0,0-6.1-20.2-14.8-43.7
			c-49.2,24.4-75.4,13.3-75.4,13.3l0,0c-3.1,8-7.5,15.8-13.8,21.5v20.8H1654v-11.9L1651.7,503.3L1651.7,503.3z"/>
		<path class="st23" d="M1536.3,368.3c4.4-11.7,7.8-21.6,7.8-21.6s15.6,6.1,39.2-4.6c0,0-4.9,33.9-9.3,44.2l4,4.2
			c7.6-14.9,15.6-48.4,15.6-48.4c31.6-1.1,7.1,17,7.1,17c-6.9,6.9-18.1,12.8,3.2,35.1c7.8,8.1,16.2,24.8,23.8,42.8
			c-6.6-16.9-7.6-57.5,14.1-90.3c22.3-33.8-38.7-39.1-101.2-22.1C1540.7,324.5,1509.7,330,1536.3,368.3z"/>
		<path class="st4" d="M1561.5,473L1561.5,473c0,0,26.2,11.1,75.4-13.3c-2.6-7-5.4-14.2-8.4-21.3c-0.2-0.4-0.3-0.8-0.5-1.2
			c0-0.1-0.1-0.1-0.1-0.2c-7.6-18-16.1-34.7-23.8-42.8c-21.4-22.3-10.1-28.2-3.2-35.1c0,0,24.5-18.1-7.1-17c0,0-8,33.5-15.6,48.4
			l-4-4.2c4.4-10.3,9.3-44.2,9.3-44.2c-23.6,10.7-39.3,4.6-39.3,4.6s-3.4,9.9-7.8,21.6c-4.4,11.5-9.8,24.9-13.9,32.5
			c-8.4,15.2,22.1-4.6,22.1-4.6v47.3c8.1-0.8,16.1-2.6,23.8-5.5C1568.3,438.5,1567.9,456.1,1561.5,473z"/>
		<path class="st4" d="M1627.9,437.2c0.2,0.4,0.3,0.8,0.5,1.2C1628.3,438,1628.1,437.6,1627.9,437.2z"/>
		<polygon class="st10" points="1653.9,303.3 1497.9,303.3 1497.9,515.3 1547.6,515.3 1653.9,515.3 1653.9,503.3 		"/>
		<path class="st3" d="M1593.7,415.7c-4.4,11.5-15.1,18.3-25.4,22.3c-7.7,2.9-15.7,4.7-23.8,5.5v-47.3c0,0-30.5,19.8-22.1,4.6
			c4.2-7.6,9.6-21,13.9-32.5c4.4-11.7,7.8-21.6,7.8-21.6"/>
		<path class="st3" d="M1578.1,390.5l-4-4.2c4.4-10.3,9.3-44.2,9.3-44.2c-23.6,10.7-39.3,4.6-39.3,4.6"/>
		<path class="st3" d="M1578.1,390.5c7.6-14.9,15.6-48.4,15.6-48.4c31.6-1.1,7.1,17,7.1,17c-6.9,6.9-18.1,12.8,3.2,35.1
			c7.8,8.1,16.2,24.8,23.8,42.8"/>
		<path class="st3" d="M1627.9,437.2c0.2,0.4,0.3,0.8,0.5,1.2c3,7.1,5.8,14.3,8.4,21.3c8.7,23.4,14.8,43.7,14.8,43.7"/>
		<path class="st3" d="M1536.7,368.8l-0.4-0.5c-26.6-38.3,4.4-43.8,4.4-43.8c62.5-17,123.5-11.6,101.2,22.1
			c-21.7,32.8-20.7,73.4-14.1,90.3c0,0.1,0.1,0.1,0.1,0.2c0.2,0.4,0.3,0.8,0.5,1.2"/>
		<path class="st3" d="M1547.6,513.3v-18.8c6.4-5.7,10.8-13.5,13.8-21.5c6.5-16.9,6.9-34.5,6.9-35l0,0"/>
		<path class="st3" d="M1636.8,459.7c-49.2,24.4-75.4,13.3-75.4,13.3"/>
		
			<pattern  id="SVGID_00000176724493913104350100000006654345991410149267_" xlink:href="#SVGID_0000013928544659637306009" patternTransform="matrix(1 0 0 1 -7753.6797 29343.9609)">
		</pattern>
		<path style="fill:url(#SVGID_00000176724493913104350100000006654345991410149267_);" d="M1573.5,660.5
			c-7.1-5.2-16.4-11.9-23.9-21.8c-38.2,21.2-103.7,2.5-103.7,2.5c-5.5,10-13.9,22.2-26.5,31.6v1.5h156.4v-13.8H1573.5z"/>
		<path class="st12" d="M1422.1,459.2c-6.3,25.5,11.2,28.7,33.4,27.7c17.8-0.8,38.7-4.2,52.4-0.6c0,0,3.4,50.3-16.1,89.2
			c0,0-34.6-7.7-50.6-1.6c-1.1,0.4-2.2,0.9-3.2,1.6c-14,8.9-2.2,24.1-17.4,38.9c-15.2,14.8-7.2,21.2,3,20.7
			c4.9-0.2,17.3-6.1,30.3-13.1c14.1-7.6,28.7-16.6,34.8-21.2c11.8-8.9,14-8.9,22-44c0.4-1.9,0.8-3.8,1.2-5.7
			c6.5-33.5,4.7-68,19.5-62.8c15.7,5.5,11.4,20.7-2.1,39.3c-7.2,9.9-13,16.1-14.7,24c-1.5,7,0.4,15.2,7.5,28.5
			c6.4,11.7,11.9,23.7,16.6,36.2c-4.4-17.6-2.4-41.5,13.5-74.5c36.8-76.9-3.8-84.5-30.9-90.2c-11.3-2.4-24.2-2.8-35.5-2.5
			c-0.6,0-1.3,0-1.9,0l0,0C1454.1,449.1,1433.2,414.7,1422.1,459.2z"/>
		<path class="st4" d="M1541.7,624.7c-1.1-2.7-2-5.5-2.7-8.3l0,0c-4.7-12.4-10.2-24.5-16.6-36.2c-7.1-13.2-8.9-21.5-7.5-28.5
			l-2.8-0.5c-0.4,1.9-0.8,3.8-1.2,5.7c-8.1,35.1-10.2,35.1-22,44c-6.2,4.6-20.8,13.6-34.8,21.2c-2.1,6.6-4.8,13-8.2,19.1
			c0,0,65.5,18.8,103.7-2.5C1546.4,634.4,1543.7,629.7,1541.7,624.7L1541.7,624.7z"/>
		<path class="st4" d="M1512.2,551.2l2.8,0.5c1.7-7.9,7.5-14.1,14.7-24c13.5-18.6,17.8-33.8,2.1-39.3
			C1516.9,483.2,1518.7,517.8,1512.2,551.2z"/>
		<path class="st4" d="M1441.4,574L1441.4,574c16-6.2,50.6,1.6,50.6,1.6c19.4-38.9,16.1-89.2,16.1-89.2c-13.8-3.6-34.6-0.2-52.4,0.6
			c0,0-9.8,46-21.8,67.9c0,0,3.9,2.4,8.8,4.8C1442.7,559.9,1445.3,568.1,1441.4,574z"/>
		<polygon class="st10" points="1575.9,409.3 1380.9,409.3 1380.9,674.3 1419.5,674.3 1575.9,674.3 1575.9,660.5 		"/>
		<path class="st3" d="M1573.5,660.6c-7.1-5.2-16.4-11.9-23.9-21.8c-3.3-4.3-5.9-9-8-14"/>
		<path class="st3" d="M1541.7,624.7c-1.1-2.7-2-5.5-2.7-8.3"/>
		<path class="st3" d="M1538.9,616.3c-4.4-17.6-2.4-41.5,13.5-74.5c36.8-76.9-3.8-84.5-30.9-90.2c-11.3-2.4-24.2-2.8-35.5-2.5h-1.9"
			/>
		<path class="st3" d="M1484.1,449.1c-9.6,0.3-19.1,1.1-28.5,2.5"/>
		<path class="st3" d="M1541.7,624.7L1541.7,624.7c-0.1-0.5-0.9-3.3-2.7-8.4l0,0c-4.7-12.4-10.2-24.5-16.6-36.2
			c-7.1-13.2-8.9-21.5-7.5-28.5c1.7-7.9,7.5-14.1,14.7-24c13.5-18.6,17.8-33.8,2.1-39.3c-14.8-5.2-13,29.3-19.5,62.8
			c-0.4,1.9-0.8,3.8-1.2,5.7c-8.1,35.1-10.2,35.1-22,44c-6.2,4.6-20.8,13.6-34.8,21.2c-12.9,7-25.4,12.9-30.3,13.1
			c-10.2,0.4-18.2-5.9-3-20.7s3.4-30,17.4-38.9c1-0.6,2.1-1.2,3.2-1.6c16-6.2,50.6,1.6,50.6,1.6c19.4-38.9,16.1-89.2,16.1-89.2
			c-13.8-3.6-34.6-0.2-52.4,0.6c-22.2,1-39.8-2.1-33.4-27.7c11-44.5,31.9-10.1,61.9-10.1l0,0c0.6,0,1.3,0,1.9,0
			c0.4,0,0.8-0.1,1.3-0.1"/>
		<path class="st3" d="M1455.6,563.9c-3.8-0.3-8.8-2.3-13-4.3c-4.9-2.4-8.8-4.8-8.8-4.8c12-21.8,21.8-67.9,21.8-67.9"/>
		<path class="st3" d="M1441.4,573.9c3.9-5.8,1.3-14,1.2-14.4l0,0"/>
		<path class="st3" d="M1419.5,672.8c12.5-9.4,21.1-21.6,26.5-31.6c3.4-6.1,6.1-12.5,8.2-19.1"/>
		<path class="st3" d="M1549.7,638.7c-38.2,21.2-103.7,2.5-103.7,2.5"/>
		<polyline class="st3" points="1919.8,779 1846.2,779 1845.2,356.3 1678.9,356.3 		"/>
		<line class="st3" x1="-0.2" y1="778.8" x2="1575.9" y2="779"/>
	</g>
</g>
<path class="st7" d="M356.1,409.9H201.5c-6.6,0-12-5.4-12-12v-21.4c0-6.6,5.4-12,12-12h154.6c6.6,0,12,5.4,12,12v21.4
	C368.1,404.5,362.7,409.9,356.1,409.9z"/>
<text transform="matrix(1 0 0 1 190.5098 257.7138)" class="st25 st26">İş İlanları</text>
<text transform="matrix(1 0 0 1 190.5095 303.7089)"><tspan x="0" y="0" class="st27 st28">Kendine uygun açık pozisyonlara bakabilir ya da </tspan><tspan x="0" y="36" class="st27 st28">size uygun takım arkadaşları bulabilirsiniz.</tspan></text>
<text transform="matrix(1 0 0 1 198.6824 393.6637)" class="st4 st29 st30">Hemen Katılın</text>
</svg>
