<?xml version="1.0" encoding="utf-8"?>
<!-- Generator: Adobe Illustrator 26.3.1, SVG Export Plug-In . SVG Version: 6.00 Build 0)  -->
<svg version="1.1" id="Layer_1" xmlns="http://www.w3.org/2000/svg" xmlns:xlink="http://www.w3.org/1999/xlink" x="0px" y="0px"
	 viewBox="0 0 1920 840" style="enable-background:new 0 0 1920 840;" xml:space="preserve">
<style type="text/css">
	.st0{fill:url(#SVGID_1_);}
	.st1{fill:none;stroke:#000000;stroke-width:2;stroke-miterlimit:10;}
	.st2{fill:#FFFFFF;}
	.st3{fill:#808080;}
	.st4{fill:#666666;}
	.st5{fill:#82BD4E;}
	.st6{fill:url(#SVGID_00000092424551116618185930000006601549153434114950_);}
	.st7{fill:#333333;}
	.st8{fill:none;stroke:#000000;stroke-width:3;stroke-miterlimit:10;}
	.st9{fill:url(#SVGID_00000175321808281166993010000005890595278669535363_);}
	.st10{fill:#D6F9DD;}
	.st11{fill:#1A1A1A;}
	.st12{fill:#EFFDF1;}
	.st13{fill:url(#SVGID_00000047044778818974990010000013454594991886728880_);}
	.st14{fill:#C2FACD;}
	.st15{fill:#99F7AB;}
	.st16{fill:url(#SVGID_00000049924022716010050140000017515424321609021362_);}
	.st17{fill:none;}
	.st18{fill:url(#);}
	.st19{fill:#628E3B;}
	.st20{fill:none;stroke:#000000;stroke-width:2;stroke-linecap:round;stroke-linejoin:round;}
	.st21{fill:#60695C;}
	.st22{font-family:'Montserrat-Bold';}
	.st23{font-size:37px;}
	.st24{font-family:'Montserrat-Regular';}
	.st25{font-size:30px;}
	.st26{font-family:'Montserrat-Medium';}
	.st27{font-size:22px;}
</style>
<linearGradient id="SVGID_1_" gradientUnits="userSpaceOnUse" x1="960" y1="830.3661" x2="960" y2="14.151" gradientTransform="matrix(1 0 0 -1 0 842)">
	<stop  offset="7.521792e-02" style="stop-color:#FFFFFF"/>
	<stop  offset="0.4276" style="stop-color:#FEFEFD"/>
	<stop  offset="0.5545" style="stop-color:#F9FBF6"/>
	<stop  offset="0.645" style="stop-color:#F0F6EB"/>
	<stop  offset="0.7182" style="stop-color:#E4EFDA"/>
	<stop  offset="0.7808" style="stop-color:#D4E5C4"/>
	<stop  offset="0.8363" style="stop-color:#C0DAA8"/>
	<stop  offset="0.8865" style="stop-color:#A8CC88"/>
	<stop  offset="0.9311" style="stop-color:#8DBC64"/>
	<stop  offset="0.9559" style="stop-color:#7CB24C"/>
</linearGradient>
<rect class="st0" width="1920" height="840"/>
<g id="Layer_2_00000082355283217568913860000012402253329460947622_">
	<g id="Background_00000143591463051825842790000005910660883198569877_">
		<path class="st2" d="M274.1,395.9l-14.8,236.5c0,0-1,0.3-2.7,0.9c-4.5,1.6-13.8,5.4-20.4,10.5c-1.4,1.1-2.8,2.3-4,3.6
			c-5.6-39.5-8-211.1-8.8-276c-0.2-15.6-0.2-25-0.2-25h73c0,0,41,21,73,59s35,34,24,62s-46,124-46,124c-2.4,0-4.9,0.3-7.2,0.8
			c-5.5,1.2-10.8,3-16,5.1c-2.9,1.2-4.7,2-4.7,2c4-56,22-110,28-126s5-27-23-41S274.1,395.9,274.1,395.9z"/>
		<path class="st7" d="M367.3,600.4l0.2,0.5c-18.8,6.7-33.6,16.5-46.5,26.9c-0.6-4.8,0.1-12.2,1-18.5c0.4-0.4,12.1-10,19.1-11.9l0,0
			c1.1,2,3.5,3.4,8.1,2C359.3,596.4,367.3,597.4,367.3,600.4z"/>
		<path class="st2" d="M300.3,91.4h-23l-0.4,0.2c-0.4-0.8-0.6-1.2-0.6-1.2v-0.1c1.8-1.6,3.5-3.2,5-4.9h19c8,0,21-1,53,40
			c27.8,35.6,27.7,73.4-15.5,80.6l0,0c3.1-12.4,3.3-25.3,1.7-37.6c-4.2-32.8-20.3-61.4-23.2-65C307.3,102.4,300.3,91.4,300.3,91.4z"
			/>
		<path class="st2" d="M341.2,597.4L341.2,597.4c-7,1.9-18.7,11.5-19.1,11.9c0.9-6.5,2-11.9,2-11.9c5.2-2.2,10.5-3.9,16-5.1
			C339.9,594,340.3,595.8,341.2,597.4z"/>
		<path class="st2" d="M339.5,168.4c1.6,12.3,1.5,25.2-1.7,37.6l0,0c-5.3,0.9-10.7,1.3-16.1,1.3l0,0c0,0,3.6-3.9,0.6-11.9
			s-11-27-11-27H339.5z"/>
		<path class="st5" d="M305.3,206.3v0.1c6.6,24.1-4,84-1.4,117c0.5,7.8,2,15.5,4.4,23h-95l-0.4-0.1c0.2-0.7,0.3-1.3,0.4-1.9
			c0.2-1.1,0.6-2.8,1.1-5.1c1.8-1.9,25.3-27.2,34.9-84.9c9.5-57.2-22.7-74.4-25.8-75.9c2-1.6,4.2-3,6.5-4.1l0,0
			c6.9-3.4,11.9-3,12.2-3c0,4.4-0.6,8.4-2,11c0,0,12,16,32,16s24-24,24-24c-1.8-0.7-3.2-3.1-4.3-5.9l0.3-0.1h19c0,0,8,19,11,27
			s-0.6,11.9-0.6,11.9l0,0C316.2,207.3,310.8,206.9,305.3,206.3z"/>
		<path class="st2" d="M242.3,171.4c0.1-10.8-3-24-3-24c4-5-2-19-2-19c-9-4-12-9-9-15c2.4-4.8,7-4,10-1s5,11,5,11h5
			c-17-31,7-23,20-28c2.9-1.2,5.6-2.9,8-5.1v0.1c0,0,0.2,0.4,0.6,1.2c4.1,8.4,27.9,58.1,12.4,65.8c0.5,3.8,1.5,7.5,2.7,11.1
			c1.1,2.8,2.5,5.2,4.3,5.9c0,0-4,24-24,24s-32-16-32-16C241.7,179.8,242.3,175.8,242.3,171.4z"/>
		<path class="st7" d="M294.3,67.4c-3.7,6.4-8.1,12.4-13,18c-1.6,1.8-3.3,3.4-5,4.9c-2.4,2.1-5,3.8-8,5.1c-13,5-37-3-20,28h-5
			c0,0-2-8-5-11s-7.6-3.8-10,1c-3,6,0,11,9,15c13.5,6,6,14,2,19c-10-4-38-39-25-57s34.5-16.8,48-15C285,78.4,294,67.7,294.3,67.4z"
			/>
		<path class="st7" d="M268.3,655.4c12.3-0.6,16.7,1.4,18.2,3.1c-8.5,7.2-16.9,13-26.2,15.9c-8.4,2.7-17.2,4.5-26,5.3
			c-0.3-6.4-0.1-12.9,0.4-19.3c0,0,7.5-8.3,22.1-9.7C258.5,653.7,262,655.7,268.3,655.4z"/>
		<path class="st2" d="M256.6,633.3c0,0-3.9,10.9,0.1,17.4c-14.6,1.3-22.1,9.7-22.1,9.7c0.6-9,1.6-16.6,1.6-16.6
			C242.8,638.7,252.1,635,256.6,633.3z"/>
		<path class="st5" d="M231.1,238c-5-0.9-9.9-2.1-14.8-3.6c-4.1-1.1-8.2-2.7-12-4.6c-4.8-2.5-6-4.4-6-4.4c4.2-17.2,9.9-29,15.8-37
			c2.7-3.7,5.8-7,9.4-9.9c3,1.5,35.3,18.7,25.8,75.9c-9.6,57.7-33.1,83-34.9,84.9C218.8,319.8,232.7,260,231.1,238z"/>
		<path class="st2" d="M201.1,367c-3.5,3.1-8.1,4.7-12.8,4.4c0,0-4.9-2.4-1-4c2-0.9,3.8-2.3,5.1-4.1c3.9-4.8,8.2-14.7,5.9-34.9
			c-4-34,2-88,6-98.6c3.8,1.9,7.9,3.5,12,4.6c4.9,1.5,9.8,2.7,14.8,3.6c1.6,22-12.3,81.8-16.7,101.3c-0.5,2.3-0.9,4.1-1.1,5.1
			c-0.1,0.6-0.3,1.2-0.4,1.9C211.2,352.9,207.4,361.7,201.1,367z"/>
		<path class="st2" d="M223.5,178.5c-3.6,2.9-6.7,6.2-9.4,9.9h-88.8V188c0.1-16.9,13.7-30.6,30.6-30.6h46.8c11.6,0,22.2,6.6,27.4,17
			l0,0C227.8,175.5,225.6,176.9,223.5,178.5z"/>
		<path class="st2" d="M133.4,188.4h80.7c-5.9,8-11.6,19.8-15.8,37c0,0,1.3,1.9,6,4.4c-4,10.6-10,64.6-6,98.6
			c2.4,20.2-2,30.2-5.9,34.9c-15.6-8.1-26.8-22.7-30.4-39.9L133.4,188.4z"/>
		<path class="st1" d="M276.3,90.4c0,0,0.2,0.4,0.6,1.2c4.1,8.4,27.9,58.1,12.4,65.8c-18,9-37-7-37-7"/>
		<path class="st1" d="M239.3,147.4c-10-4-38-39-25-57s34.5-16.8,48-15c22.7,3,31.8-7.7,32-8"/>
		<path class="st1" d="M237.3,128.4c0,0,6,14,2,19"/>
		<path class="st1" d="M237.3,128.4c-9-4-12-9-9-15c2.4-4.8,7-4,10-1s5,11,5,11h5c-17-31,7-23,20-28c2.9-1.2,5.6-2.9,8-5.1
			c1.8-1.6,3.5-3.2,5-4.9c4.9-5.6,9.3-11.6,13-18l0,0"/>
		<path class="st1" d="M239.3,147.4c0,0,3,13.2,3,24c0,4.4-0.6,8.4-2,11"/>
		<path class="st1" d="M289.3,157.4c0.5,3.8,1.5,7.5,2.7,11.1c1.1,2.8,2.5,5.2,4.3,5.9"/>
		<path class="st1" d="M296.3,174.4c0,0-4,24-24,24s-32-16-32-16"/>
		<path class="st1" d="M281.3,85.4h19c8,0,21-1,53,40c27.8,35.6,27.7,73.4-15.5,80.6c-5.3,0.9-10.7,1.3-16.1,1.2
			c-5.5,0-10.9-0.4-16.4-1c-2.3-0.2-4.6-0.5-7-0.9"/>
		<path class="st1" d="M316.3,103.4c2.9,3.6,19,32.2,23.2,65c1.6,12.3,1.5,25.2-1.7,37.6"/>
		<polyline class="st1" points="292.3,168.4 311.3,168.4 339.5,168.4 		"/>
		<path class="st1" d="M311.3,168.4c0,0,8,19,11,27s-0.6,11.9-0.6,11.9"/>
		<polyline class="st1" points="277.3,91.4 300.3,91.4 307.3,91.4 		"/>
		<path class="st1" d="M300.3,91.4c0,0,7,11,16,12"/>
		<path class="st1" d="M305.3,206.4c6.6,24.1-4,84-1.4,117c0.5,7.8,2,15.5,4.4,23h-95"/>
		<path class="st1" d="M230.1,174.4c-2.3,1.1-4.5,2.5-6.5,4.1c-3.6,2.9-6.7,6.2-9.4,9.9c-5.9,8-11.6,19.8-15.8,37c0,0,1.3,1.9,6,4.4
			c3.8,1.9,7.9,3.5,12,4.6c4.9,1.5,9.8,2.7,14.8,3.6c4.8,0.8,6.2,0.4,6.2,0.4c-2-12,2-34,2-34"/>
		<path class="st1" d="M242.3,171.4L242.3,171.4c-0.3,0-5.4-0.4-12.2,3"/>
		<path class="st1" d="M204.3,229.8c-4,10.6-10,64.6-6,98.6c2.4,20.2-2,30.2-5.9,34.9c-1.3,1.8-3.1,3.2-5.1,4.1"/>
		<path class="st1" d="M231.1,238c1.6,22-12.3,81.8-16.7,101.3c-0.5,2.3-0.9,4.1-1.1,5.1c-0.1,0.6-0.3,1.2-0.4,1.9
			c-1.6,6.5-5.5,15.4-11.8,20.7c-3.5,3.1-8.1,4.7-12.8,4.4c0,0-4.9-2.4-1-4"/>
		<path class="st1" d="M223.3,346.4c0,0,0.1,9.4,0.2,25c0.7,64.9,3.1,236.5,8.8,276"/>
		<path class="st1" d="M276.3,361.4l-2.2,34.5l-14.8,236.5c0,0-1,0.3-2.7,0.9c-4.5,1.6-13.8,5.4-20.4,10.5c-1.4,1.1-2.8,2.3-4,3.6"
			/>
		<path class="st1" d="M236.2,643.8c0,0-1,7.6-1.6,16.6c-0.5,6.4-0.7,12.9-0.4,19.3c0,0.2,0,0.5,0,0.7"/>
		<path class="st1" d="M256.6,633.3c0,0-3.9,10.9,0.1,17.4c1.8,3,5.3,5,11.6,4.7c12.3-0.6,16.7,1.4,18.2,3.1
			c0.5,0.5,0.8,1.2,0.8,1.9"/>
		<path class="st1" d="M234.6,660.4c0,0,7.5-8.3,22.1-9.7"/>
		<path class="st1" d="M274.1,395.9c0,0,22.2,22.5,50.2,36.5s29,25,23,41s-24,70-28,126"/>
		<path class="st1" d="M319.3,599.4c0,0,1.9-0.9,4.7-2c5.2-2.2,10.5-3.9,16-5.1c2.4-0.5,4.8-0.8,7.2-0.8c0,0,35-96,46-124
			s8-24-24-62s-73-59-73-59"/>
		<path class="st1" d="M324,597.4c0,0-1.1,5.3-2,11.9c-0.9,6.3-1.6,13.7-1,18.5c0.1,0.6,0.2,1.1,0.3,1.6"/>
		<path class="st1" d="M340.1,592.3c-0.1,1.8,0.3,3.5,1.1,5.1c1.1,2,3.5,3.4,8.1,2c10-3,18-2,18,1"/>
		<path class="st1" d="M322,609.3L322,609.3c0.4-0.4,12.1-10,19.1-11.9"/>
		<path class="st1" d="M125.3,188c0.1-16.9,13.7-30.6,30.6-30.6h46.8c11.6,0,22.2,6.6,27.4,17l0,0"/>
		<polyline class="st1" points="125.3,188.4 133.4,188.4 214.1,188.4 214.3,188.4 		"/>
		<path class="st1" d="M200.7,366.8l0.4,0.1c2.8,0.9,5.6,1.6,8.5,2.1l13.7,2.3"/>
		<path class="st1" d="M133.4,188.4l28.6,135c3.6,17.2,14.8,31.8,30.4,39.9"/>
		<path class="st8" d="M223.3,178.4l0.2,0.1c3,1.5,35.3,18.7,25.8,75.9c-9.6,57.7-33.1,83-34.9,84.9l-0.1,0.1"/>
		<path class="st1" d="M0,779l150-80c32.6-24,58-16.9,84.3-19.3c8.8-0.8,17.6-2.6,26-5.3c9.2-3,17.6-8.7,26.2-15.9
			c10.6-9,21.5-20.1,34.5-30.7c12.8-10.4,27.7-20.2,46.5-26.9c15.8-5.6,34.4-9,56.8-8.5c0,0,404.5-136.7,657.6-81.1
			C1335,567,1478,575,1632,524s288-116,288-116"/>
	</g>
</g>
<text transform="matrix(1 0 0 1 661.5402 256.5479)" class="st22 st23">Yazılımcı Geliştirme Platformu</text>
<text transform="matrix(1 0 0 1 661.54 302.543)"><tspan x="0" y="0" class="st24 st25">ekşiCode, yazılımcıların serüveninde onları yalnız bırakmaz, </tspan><tspan x="0" y="36" class="st24 st25">arkasında durur.</tspan></text>
<path class="st5" d="M853.5,398.8H674.3c-6.6,0-12-5.4-12-12v-21.4c0-6.6,5.4-12,12-12h179.2c6.6,0,12,5.4,12,12v21.4
	C865.5,393.4,860.1,398.8,853.5,398.8z"/>
<text transform="matrix(1 0 0 1 672.736 382.5687)" class="st2 st26 st27">Hemen Başlayın</text>
</svg>
