<?xml version="1.0" encoding="utf-8"?>
<!-- Generator: Adobe Illustrator 26.3.1, SVG Export Plug-In . SVG Version: 6.00 Build 0)  -->
<svg version="1.1" id="Layer_1" xmlns="http://www.w3.org/2000/svg" xmlns:xlink="http://www.w3.org/1999/xlink" x="0px" y="0px"
	 viewBox="0 0 1920 840" style="enable-background:new 0 0 1920 840;" xml:space="preserve">
<style type="text/css">
	.st0{fill:url(#SVGID_1_);}
	.st1{fill:none;stroke:#000000;stroke-width:2;stroke-miterlimit:10;}
	.st2{fill:#FFFFFF;}
	.st3{fill:#808080;}
	.st4{fill:#666666;}
	.st5{fill:#82BD4E;}
	.st6{fill:url(#SVGID_00000132068294489056955680000012274485010111804597_);}
	.st7{fill:#333333;}
	.st8{fill:none;stroke:#000000;stroke-width:3;stroke-miterlimit:10;}
	.st9{fill:url(#SVGID_00000136396816025960699570000014607666834412774333_);}
	.st10{fill:#D6F9DD;}
	.st11{fill:#1A1A1A;}
	.st12{fill:#EFFDF1;}
	.st13{fill:url(#SVGID_00000119115034657188879630000002235534419045137030_);}
	.st14{fill:#C2FACD;}
	.st15{fill:#99F7AB;}
	.st16{fill:url(#SVGID_00000182527279433238988630000008974418439717524620_);}
	.st17{fill:none;}
	.st18{fill:url(#);}
	.st19{fill:#628E3B;}
	.st20{fill:none;stroke:#000000;stroke-width:2;stroke-linecap:round;stroke-linejoin:round;}
	.st21{fill:#60695C;}
	.st22{font-family:'Montserrat-Bold';}
	.st23{font-size:37px;}
	.st24{font-family:'Montserrat-Regular';}
	.st25{font-size:30px;}
	.st26{font-family:'Montserrat-Medium';}
	.st27{font-size:22px;}
</style>
<g>
	
		<linearGradient id="SVGID_1_" gradientUnits="userSpaceOnUse" x1="960" y1="830.3661" x2="960" y2="14.151" gradientTransform="matrix(1 0 0 -1 0 842)">
		<stop  offset="7.521792e-02" style="stop-color:#FFFFFF"/>
		<stop  offset="0.4276" style="stop-color:#FEFEFD"/>
		<stop  offset="0.5545" style="stop-color:#F9FBF6"/>
		<stop  offset="0.645" style="stop-color:#F0F6EB"/>
		<stop  offset="0.7182" style="stop-color:#E4EFDA"/>
		<stop  offset="0.7808" style="stop-color:#D4E5C4"/>
		<stop  offset="0.8363" style="stop-color:#C0DAA8"/>
		<stop  offset="0.8865" style="stop-color:#A8CC88"/>
		<stop  offset="0.9311" style="stop-color:#8DBC64"/>
		<stop  offset="0.9559" style="stop-color:#7CB24C"/>
	</linearGradient>
	<rect class="st0" width="1920" height="840"/>
	<g>
		<path class="st2" d="M319.8,646.5c-5.4-2.5-10.5-5.5-15.3-9L289.8,585l0,0c5.6-0.7,11.1-1.9,16.5-3.5l0.2,0.7
			c1.5,1.7,27.8,25,34.9,31.1c12.7,10.8,17.8,14,3.8,48.2c-11.4,28-12.3,41.4-15.2,79.3c-10-5.7-27.1-1.2-27.1-1.2l11.5-65.6
			C316.4,663.5,318.3,653.9,319.8,646.5z"/>
		<path class="st2" d="M449.7,483.1c0.2,0.7-0.2,1.4-0.9,1.5c-0.1,0-0.3,0-0.4,0c-0.4,0-0.7-0.2-0.9-0.5l-4-5.1
			c-1.8-2.2-5-2.6-7.2-0.9l-0.1,0.1c-0.4,0.3-0.7,0.7-1,1.1l-5.6,8.5c-0.4,0.7-0.9,1.3-1.5,1.9c-2.9,3.1-6.9,4.9-11.1,4.9h-15.4v-14
			h5.4c4.3,0,8.3-2.2,10.6-5.8l2-3.1c2-3.1,5.5-5,9.2-5h10.8c3.5,0,6.6,2.4,7.5,5.8L449.7,483.1z"/>
		<path class="st2" d="M266.8,699.9c-2.7,4.4-4.1,5.2-4.3,6.3l-0.4-0.1c-7.2-9.8-16.5-5.8-17-5.5c4.9-2.6,8-8,8.2-8.3
			C257.3,695.5,261.9,698.1,266.8,699.9z"/>
		<polygon points="630.7,504.7 630.7,514 606.9,514 299.2,514 282.4,514 282.4,504.7 		"/>
		<path d="M584.2,421.2l-43.7,77.5h-139v-4.1h15.4c4.2,0,8.3-1.8,11.1-4.9h112.2l38.5-68.5H584.2z"/>
		<polygon class="st2" points="578.7,421.2 540.3,489.8 465.8,489.8 504.2,421.2 578.1,421.2 		"/>
		<path class="st14" d="M401.5,494.7v4.1h-73.6c-29.2,0-29.8-0.6-66.8-37.6s-29.2-60-3-65.1c0,0,14.6,23.9,27.2,44
			c1.6,2.5,3.1,5,4.6,7.3c2.6,4.2,5.1,8,7.1,11.2c12.3,19,14.8,19.6,54.1,19.6h50.3L401.5,494.7L401.5,494.7L401.5,494.7z"/>
		<path class="st4" d="M358.6,767c0.8,3.3-3.6,7.6-7.8,9c-2.8,1-4.5,0.8-8.1-0.1l-4.1-14.8c8.2,4,17.6,2.5,17.6,2.5
			S357.8,763.7,358.6,767z"/>
		<path class="st4" d="M338.6,761.2l4.1,14.8c-1.8-0.5-4.1-1.1-7.3-1.8c-6.9-1.6-23.4,1.9-31.2,1.9c-2.9,0-4.6-0.5-4.2-1.9
			c0.7-2.3,1.9-9,3-16l0,0c16.8,2.4,27-4.6,27-4.6C332.1,756.9,335.1,759.5,338.6,761.2z"/>
		<path class="st2" d="M299.2,538c21.9-9,77.1-25.4,27.4,62.1c-10.3-9.1-20-18-20-18l-0.2-0.7c16.9-5.2,20.2-12.5,20.2-12.5h-13
			c-8-8.6-15.4-17.8-22-27.5C292.6,540.9,295.4,539.6,299.2,538z"/>
		<path d="M313.5,569h13c0,0-3.3,7.3-20.2,12.5c-5.4,1.6-10.9,2.8-16.5,3.5c-8.5,1.1-17.1,1.7-25.8,1.6c-8.8,0-17.6-0.5-26.3-1.6
			c-32.9-4.3-42.2-16-42.2-16H313.5L313.5,569z"/>
		<path class="st2" d="M323.8,739l-0.1,0.5c0,0-1.4,1.1,6.4,14.1c0,0-10.3,7-27,4.6c0.1-0.8,0.2-1.6,0.4-2.4
			c1.3-8.4,2.4-16.3,2.4-16.3C311.7,737.9,317.9,737.8,323.8,739z"/>
		<path class="st7" d="M325,393.4c0,17-12.7,16-12.7,29.7c0.1,8.5,2.3,16.9,6.4,24.4h-28.8c-1.5-2.3-3-4.8-4.6-7.3h0.1
			c32.4-31.5,0.5-53.9-20.7-77.6c-1.3-1.5-2.5-3-3.6-4.4c-15.6-20.9-1.7-32.3-1.7-32.3c6.2,3.9,14.1,5.7,20.2-1.5
			c8.9-10.5,0-33,0-33l11.4-1.6c0,0-11.6-13.7-14.8-30c5.5,22.6,39.2,24.8,39.2,45c0,22-21.1,20.1-21.1,46
			C294.3,376.7,325,376.4,325,393.4z"/>
		<path class="st15" d="M291.5,541.5c6.6,9.7,14,18.9,22,27.5h-85.7c-28.2-28.2-40.9-68-42.1-107.4c-1.1-39.4,9.4-78.4,27.8-104.9
			c0,0,21.6,27.4,47.7,1.3c1.1,1.4,2.2,2.9,3.6,4.4c21.1,23.7,53.1,46.1,20.7,77.6h-0.1c-12.6-20.1-27.2-44-27.2-44
			c-26.2,5.1-34,28.1,3,65.1C261.1,490.9,277.1,520.7,291.5,541.5z"/>
		<path class="st2" d="M253.2,692.3c-1.3-1-2-1.7-2-1.7c3.5-4.9,9.6-20.1,14.9-37.1c4.9-15.7,9.2-32.9,10.3-44.9
			c7.6,11.2,17.1,21,28,29l1,3.6c-1.8,7.1-9,28.9-36.3,59.4c-0.5-0.1-1-0.3-1.5-0.4l-0.9-0.3C261.9,698.1,257.3,695.5,253.2,692.3z"
			/>
		<path class="st2" d="M289.8,585l14.6,52.6c-10.9-8-20.4-17.8-28-29c-4.9-6.9-9-14.3-12.4-22.1C272.6,586.6,281.2,586,289.8,585
			L289.8,585z"/>
		<path class="st2" d="M235.8,267.6c14-22.7,35.6-23,39.1-22.9c0.3,2.3,0.5,4.7,0.5,7c0,0.6,0,1.2,0,1.8l0,0c0,2.1,0.3,4.1,0.8,6.1
			c3.2,16.3,14.8,30,14.8,30l-11.4,1.6c0,0,8.9,22.5,0,33c-6.1,7.2-14,5.4-20.2,1.5c0,0-13.9,11.4,1.7,32.3
			c-26,26-47.7-1.3-47.7-1.3c36.8-52.9,12-61.3,12-74c-6.1,0-11-5-10.9-11.1s5-11,11.1-10.9c4.4,0,8.4,2.7,10.1,6.8L235.8,267.6z"/>
		<path d="M274.9,244.7c-3.5-0.1-25.2,0.2-39.1,22.9l-0.2-0.1c-2.4-5.6-8.8-8.2-14.4-5.9c-5.6,2.4-8.2,8.8-5.9,14.4
			c1.7,4.1,5.7,6.7,10.1,6.7c0,12.7,24.8,21.1-12,74c-18.4,26.4-28.9,65.4-27.8,104.9H185c0,0-19.9,10.8-38.9,0s7-37.4,7-55.8
			s-29.8-17.1-29.8-45s35.5-35.5,50.1-50.1s-4-37.5-4-58.9c0-27.6,28.4-50,56-50C250.3,201.7,271.4,220,274.9,244.7z"/>
		<path class="st4" d="M264.6,712.5c0.8,1.9,1.3,4,1.4,6.1c-0.1,2.7-0.9,5.3-2.5,7.6c-1.7,2.8-1.8,5.5,0.9,16.1
			c2.5,9.7-1.2,14.9-2.3,16.1c4-4.7-1.9-16.5-2.5-21.9c-0.9-6.8,5.7-16.3,2.1-23.3s-15.4-10-19.9-7c-2.6,1.7-4.1,4.6-4.1,7.7
			c-0.8-4.9,2.7-10.9,7.3-13.3l0,0c0.5-0.3,9.8-4.3,17,5.5l0.4,0.1C262.2,707.1,263,708.3,264.6,712.5z"/>
		<path d="M237.8,713.9c0-3.1,1.6-6,4.1-7.7c4.5-3,16.3,0,19.9,7s-3,16.5-2.1,23.3c0.7,5.4,6.5,17.2,2.5,21.9v0.1
			c-1,1.2-2.6,1.9-5,2c-12.3,0.4-7.8-18.5-9.9-29.4c-0.9-4.6-3.8-6.1-7.2-10.6C238.5,718.5,237.7,716.2,237.8,713.9z"/>
		<path class="st1" d="M225.4,282.7c-6.1,0-11-4.9-11-11s4.9-11,11-11c4.4,0,8.4,2.6,10.1,6.7"/>
		<path class="st1" d="M235.7,267.7l0.1-0.2c14-22.7,35.6-23,39.2-22.9h0.5"/>
		<path class="st1" d="M275.5,253.6c0.1,2,0.4,4.1,0.8,6.1c3.2,16.3,14.8,30,14.8,30l-11.4,1.6c0,0,8.9,22.5,0,33
			c-6.1,7.2-14,5.4-20.2,1.5c-2.6-1.7-5-3.7-7.1-6c-5.7-6.3-11.7-6.7-11.7-6.7"/>
		<path class="st1" d="M184.9,461.6c0,0-19.9,10.8-38.9,0s7-37.4,7-55.8s-29.8-17.1-29.8-45s35.5-35.5,50.1-50.1s-3.9-37.5-3.9-58.9
			c0-27.6,28.4-50,56-50c24.9,0,46,18.3,49.5,43c0.3,2.3,0.5,4.7,0.5,7c0,0.6,0,1.2,0,1.8"/>
		<path class="st1" d="M289.9,447.4h28.8c-4.1-7.5-6.3-15.8-6.4-24.4c0-13.6,12.7-12.7,12.7-29.7s-30.6-16.8-30.6-42.7
			s21.1-24,21.1-46c0-20.2-33.6-22.4-39.2-45.1c-0.5-2-0.8-4-0.8-6.1l0,0c0-0.2,0-0.3,0-0.5"/>
		<path class="st1" d="M225.4,282.7c0,12.7,24.8,21.1-12,74c-18.4,26.4-28.9,65.4-27.8,104.9s13.9,79.2,42.1,107.4"/>
		<path class="st1" d="M259.4,325.7c0,0-13.9,11.4,1.7,32.3c1.1,1.4,2.2,2.9,3.6,4.4c21.1,23.7,53.1,46.1,20.7,77.6"/>
		<path class="st1" d="M401.5,498.8h-73.6c-29.2,0-29.8-0.6-66.8-37.6s-29.2-60-3-65.1c0,0,14.6,23.9,27.2,44c1.6,2.5,3.1,5,4.6,7.3
			c2.6,4.2,5.1,8,7.1,11.2c12.3,19,14.8,19.6,54.1,19.6h50.3L401.5,498.8L401.5,498.8z"/>
		<path class="st1" d="M313.5,569c-8-8.6-15.4-17.8-22-27.5c-14.3-20.7-30.4-50.6-30.4-80.3"/>
		<path class="st1" d="M213.4,356.7c0,0,21.6,27.4,47.7,1.3"/>
		<path class="st1" d="M401.5,494.7h15.4c4.2,0,8.3-1.8,11.1-4.9c0.5-0.6,1-1.2,1.5-1.9l5.6-8.5c0.3-0.4,0.6-0.8,1-1.1
			c2.2-1.8,5.4-1.6,7.3,0.6c0,0,0.1,0.1,0.1,0.2l4,5.1c0.2,0.3,0.5,0.5,0.9,0.5c0.7,0.1,1.3-0.5,1.4-1.2c0-0.2,0-0.3,0-0.4
			l-2.7-10.5c-0.9-3.4-3.9-5.8-7.5-5.8h-10.8c-3.7,0-7.2,1.9-9.2,5.1l-2,3.1c-2.3,3.6-6.3,5.8-10.6,5.8h-5.4"/>
		<path class="st1" d="M439.1,477.9l7,8.6c0.2,0.3,0.6,0.5,1,0.5c0.7,0,1.3-0.6,1.3-1.3c0-0.1,0-0.2,0-0.3"/>
		<path class="st1" d="M436.1,478.5l8.8,10.8c0.2,0.3,0.6,0.5,1,0.5c0.7,0,1.3-0.6,1.3-1.3c0-0.1,0-0.2,0-0.3"/>
		<path class="st1" d="M291,541.7l0.5-0.2c1.1-0.5,3.9-1.9,7.7-3.4c21.9-9,77.1-25.4,27.4,62.1"/>
		<path class="st1" d="M306.5,582.1c0,0,9.7,8.9,20,18c5.2,4.7,10.6,9.4,14.9,13c12.7,10.8,17.8,14,3.8,48.2
			c-11.4,28-14.7,51.8-15.2,68.9c-0.1,3.8-0.1,7.3,0,10.4"/>
		<path class="st1" d="M326.5,649.3c-2.3-0.8-4.6-1.8-6.8-2.8c-4.8-2.2-9.4-4.9-13.8-7.9c-0.5-0.3-1-0.7-1.5-1.1
			c-10.9-8-20.4-17.8-28-29c-4.9-6.9-9-14.3-12.4-22.1"/>
		<path class="st1" d="M302.1,740.7c0,0,6.6-36.4,12.3-66.8c2-10.4,3.8-20,5.3-27.3c0-0.1,0.1-0.2,0.1-0.4"/>
		<path class="st1" d="M302.1,740.7c1.2-0.5,2.5-0.9,3.7-1.3c5.9-1.5,12-1.7,18-0.5c2.1,0.4,4.2,1,6.3,1.7"/>
		<path class="st1" d="M303,758.2c-1.1,7-2.3,13.7-3,16c-0.4,1.4,1.3,1.9,4.2,1.9c7.8,0,24.3-3.5,31.2-1.9c3.2,0.7,5.5,1.3,7.3,1.8
			c3.7,0.9,5.4,1.1,8.1,0.1c4.1-1.4,8.6-5.7,7.8-9s-2.4-3.3-2.4-3.3s-9.4,1.5-17.6-2.5c-3.5-1.7-6.5-4.3-8.5-7.7
			c-7.8-13-6.4-14.1-6.4-14.1"/>
		<path class="st1" d="M305.9,739.4c0,0-1.1,7.9-2.4,16.3c-0.1,0.8-0.3,1.6-0.4,2.4"/>
		<path class="st1" d="M303,758.2L303,758.2c16.8,2.4,27-4.6,27-4.6"/>
		<path class="st1" d="M276.4,608.6c-1.1,12-5.4,29.2-10.3,44.9c-5.3,17-11.4,32.2-14.9,37.1c0,0,0.7,0.7,2,1.7
			c4.1,3.2,8.6,5.8,13.5,7.6l0.9,0.3c0.5,0.2,1,0.3,1.5,0.4"/>
		<path class="st1" d="M305.9,638.7c-0.1,0.8-0.3,1.7-0.5,2.5c-1.8,7.1-9,28.9-36.3,59.4"/>
		<path class="st1" d="M262.1,758.4c4-4.7-1.9-16.5-2.5-21.9c-0.9-6.8,5.7-16.3,2.1-23.3s-15.4-10-19.9-7c-2.6,1.7-4.1,4.6-4.1,7.7
			c0,2.4,0.8,4.7,2.2,6.5c3.4,4.4,6.3,6,7.2,10.6c2.2,10.9-2.3,29.8,9.9,29.4C259.5,760.3,261.1,759.6,262.1,758.4"/>
		<path class="st1" d="M261.9,758.7c0.1-0.1,0.1-0.2,0.2-0.2v-0.1c1.1-1.2,4.8-6.3,2.3-16.1c-2.7-10.5-2.6-13.3-0.9-16.1
			c1.5-2.3,2.4-4.9,2.5-7.6c-0.1-2.1-0.5-4.2-1.4-6.1c-1.6-4.2-2.4-5.4-2.1-6.3c0.2-1,1.6-1.9,4.3-6.3"/>
		<path class="st1" d="M245,700.6c-4.6,2.4-8.1,8.4-7.3,13.3c0.1,0.5,0.2,1,0.4,1.5"/>
		<path class="st1" d="M253.2,692.3L253.2,692.3c-0.2,0.3-3.3,5.7-8.2,8.3"/>
		<path class="st1" d="M245,700.6L245,700.6c0.5-0.3,9.8-4.3,17,5.5"/>
		<path class="st1" d="M237.8,585c-32.9-4.3-42.2-16-42.2-16h131c0,0-3.3,7.3-20.2,12.5c-5.4,1.6-10.9,2.8-16.5,3.5
			c-8.5,1.1-17.1,1.7-25.8,1.6C255.3,586.6,246.5,586,237.8,585z"/>
		<line class="st1" x1="237.7" y1="585" x2="184.9" y2="778.3"/>
		<polyline class="st1" points="267.6,700.2 268.2,718.5 270,778.3 		"/>
		<line class="st1" x1="264" y1="586.5" x2="266.1" y2="653.5"/>
		<polyline class="st1" points="343.3,778.3 342.7,776 338.6,761.2 330.1,730.3 314.4,673.9 305.4,641.2 304.4,637.6 289.8,585 		
			"/>
		<line class="st1" x1="606.9" y1="514" x2="606.9" y2="778.3"/>
		<polygon class="st1" points="606.9,514 630.7,514 630.7,504.7 282.4,504.7 282.4,514 299.2,514 		"/>
		<polyline class="st1" points="428,489.8 445.9,489.8 465.8,489.8 540.3,489.8 578.7,421.2 		"/>
		<polyline class="st1" points="534.5,498.8 540.5,498.8 584.2,421.2 578.7,421.2 578.1,421.2 504.2,421.2 		"/>
		<line class="st1" x1="465.8" y1="489.8" x2="504.2" y2="421.2"/>
		<polyline class="st1" points="401.5,498.8 534.4,498.8 534.5,498.8 		"/>
		<polyline class="st1" points="1920,778.3 606.9,778.3 343.3,778.3 304.2,778.3 270,778.3 184.9,778.3 93.4,778.3 53.7,567 0,567 
					"/>
		<line class="st1" x1="299.2" y1="514" x2="299.2" y2="538"/>
	</g>
</g>
<path class="st5" d="M979.2,372.9h-168c-6.6,0-12-5.4-12-12v-21.4c0-6.6,5.4-12,12-12h168c6.6,0,12,5.4,12,12v21.4
	C991.2,367.5,985.8,372.9,979.2,372.9z"/>
<text transform="matrix(1 0 0 1 800.8062 257.2857)" class="st22 st23">Projeler</text>
<text transform="matrix(1 0 0 1 800.8059 303.2808)" class="st24 st25">Aktif açık kaynak projelerimize katılap, kendinizi Geliştirebilirsiniz.</text>
<text transform="matrix(1 0 0 1 809.4724 356.6367)" class="st2 st26 st27">Projeleri Göster</text>
</svg>
